<svg width="281" height="98" viewBox="0 0 281 98" fill="none" xmlns="http://www.w3.org/2000/svg">
<path d="M80.2088 19.3433C79.3932 19.3442 78.6052 19.639 77.9893 20.1737C77.3734 20.7083 76.9707 21.447 76.8551 22.2544C76.2266 26.4716 74.2695 30.3785 71.2682 33.4072C68.267 36.4359 64.3781 38.4285 60.1667 39.0954C59.3114 39.2204 58.5292 39.648 57.9622 40.3004C57.3952 40.9528 57.0809 41.7869 57.0763 42.6513V55.4099C57.0674 55.887 57.1609 56.3604 57.3505 56.7983C57.5401 57.2362 57.8214 57.6283 58.1754 57.9483C58.5293 58.2683 58.9478 58.5087 59.4025 58.6533C59.8573 58.7979 60.3377 58.8433 60.8115 58.7865C69.9836 57.9063 78.5635 53.8615 85.079 47.346C91.5945 40.8305 95.6393 32.2506 96.5195 23.0785C96.5663 22.6069 96.514 22.1308 96.3659 21.6806C96.2179 21.2304 95.9773 20.8162 95.6597 20.4645C95.3421 20.1127 94.9545 19.8313 94.5217 19.6382C94.089 19.4451 93.6206 19.3447 93.1467 19.3433H80.2088Z" fill="url(#paint0_linear_1969_3714)"/>
<path d="M57.0763 42.5178V55.4518C57.0773 56.2675 57.3721 57.0554 57.9067 57.6714C58.4414 58.2873 59.1801 58.6899 59.9874 58.8055C64.2357 59.4377 68.1683 61.4183 71.2054 64.4553C74.2424 67.4924 76.2231 71.425 76.8552 75.6733C76.9715 76.4803 77.3744 77.2186 77.9902 77.7531C78.6059 78.2876 79.3935 78.5827 80.2089 78.5844H93.1468C93.6207 78.583 94.089 78.4825 94.5218 78.2894C94.9546 78.0963 95.3422 77.8149 95.6598 77.4632C95.9774 77.1115 96.2179 76.6972 96.366 76.2471C96.5141 75.7969 96.5664 75.3207 96.5196 74.8491C95.6385 65.6777 91.5933 57.0987 85.0779 50.584C78.5625 44.0693 69.9831 40.025 60.8116 39.145C60.6933 39.145 60.575 39.145 60.4567 39.145C60.0098 39.1377 59.5661 39.2206 59.1519 39.3886C58.7377 39.5566 58.3617 39.8064 58.0462 40.123C57.7307 40.4395 57.4822 40.8165 57.3155 41.2312C57.1489 41.6459 57.0676 42.09 57.0763 42.5368" fill="url(#paint1_linear_1969_3714)"/>
<path d="M30.3496 2.94479C21.4601 6.92186 13.9116 13.3866 8.615 21.5588C3.31837 29.731 0.5 39.2615 0.5 49.0001C0.5 58.7386 3.31837 68.2691 8.615 76.4413C13.9116 84.6135 21.4601 91.0783 30.3496 95.0553C34.7258 96.963 37.4385 97.4552 39.7545 97.4552C48.5298 97.4552 52.5321 69.3665 52.5321 49.0001C52.5321 28.6336 48.5184 0.544922 39.7545 0.544922C37.4385 0.544922 34.7258 1.02566 30.3496 2.94479" fill="url(#paint2_radial_1969_3714)"/>
<path fill-rule="evenodd" clip-rule="evenodd" d="M156.68 25.7581C156.005 25.7409 155.35 25.5249 154.797 25.1373C154.244 24.7496 153.817 24.2075 153.571 23.5787C153.324 22.9499 153.268 22.2624 153.411 21.6022C153.553 20.942 153.887 20.3384 154.37 19.8669C154.854 19.3954 155.466 19.077 156.129 18.9514C156.793 18.8259 157.479 18.8988 158.101 19.1611C158.723 19.4234 159.255 19.8634 159.628 20.426C160.002 20.9886 160.201 21.6489 160.201 22.3243C160.196 22.7811 160.1 23.2323 159.92 23.6522C159.74 24.072 159.479 24.4523 159.152 24.7712C158.825 25.0901 158.439 25.3414 158.014 25.5108C157.59 25.6801 157.137 25.7642 156.68 25.7581ZM153.498 49.1956V28.276C153.498 28.276 154.585 28.9971 156.642 28.9971C158.698 28.9971 159.785 28.276 159.785 28.276V49.1956H153.498ZM232.483 28.276V49.1956H238.771V28.276C238.771 28.276 237.684 28.9971 235.627 28.9971C233.571 28.9971 232.483 28.276 232.483 28.276ZM235.665 25.7581C234.99 25.7409 234.335 25.5249 233.782 25.1373C233.229 24.7496 232.803 24.2075 232.556 23.5787C232.31 22.9499 232.254 22.2624 232.396 21.6022C232.538 20.942 232.872 20.3384 233.356 19.8669C233.839 19.3954 234.451 19.077 235.115 18.9514C235.778 18.8259 236.464 18.8988 237.087 19.1611C237.709 19.4234 238.24 19.8634 238.614 20.426C238.987 20.9886 239.187 21.6489 239.187 22.3243C239.181 22.7811 239.086 23.2323 238.906 23.6522C238.726 24.072 238.465 24.4523 238.138 24.7712C237.811 25.0901 237.424 25.3414 237 25.5108C236.576 25.6801 236.122 25.7642 235.665 25.7581ZM221.594 49.1958L231.228 19.5618H224.528L217.23 43.8733L209.919 19.5618H203.231L212.861 49.1958H221.594ZM163.559 37.9709C163.559 30.8934 168.091 26.1051 174.661 26.1051C181.232 26.1051 185.802 30.8934 185.802 37.9709C185.802 45.0484 181.27 49.8329 174.661 49.8329C168.053 49.8329 163.559 45.0637 163.559 37.9709ZM179.744 37.9709C179.744 33.9457 177.882 31.6145 174.661 31.6145C171.441 31.6145 169.618 33.9457 169.618 37.9709C169.618 41.9961 171.483 44.3235 174.661 44.3235C177.84 44.3235 179.744 41.9923 179.744 37.9709ZM197.279 41.752V31.8855H202.594V27.2765H197.279V19.5389H192.891L191.319 27.2765H187.691V31.8855H191.403V42.5876C191.403 47.8032 193.784 49.8368 198.71 49.8368C200.013 49.8229 201.313 49.6952 202.594 49.4552V44.3121H200.034C197.962 44.3121 197.279 43.6215 197.279 41.752ZM275.158 31.8855V41.752C275.158 43.6215 275.841 44.3121 277.917 44.3121H280.5V49.4552C279.217 49.6951 277.916 49.8227 276.612 49.8368C271.69 49.8368 269.305 47.8032 269.305 42.5876V31.8855H265.593V27.2765H269.222L270.793 19.5389H275.158V27.2765H280.5V31.8855H275.158ZM253.14 26.1051C246.909 26.1051 242.544 30.9773 242.544 37.9709C242.544 45.0865 246.909 49.8329 253.266 49.8329C257.501 49.8329 260.809 48.1388 262.968 44.747L258.687 41.4009C257.119 43.6901 255.467 44.747 253.266 44.747C250.511 44.747 248.817 42.927 248.645 39.7489H263.609C263.609 39.7489 263.689 38.9171 263.689 37.9709C263.689 30.8819 259.37 26.1051 253.14 26.1051ZM253.189 31.191C255.94 31.191 257.596 32.7591 257.806 35.468H248.653C248.867 32.885 250.686 31.191 253.189 31.191ZM134.604 19.5389H128.316V49.1958H134.604V19.5389ZM145.054 49.1958H152.239L142.364 33.6558L151.773 19.5389H144.959L136.184 33.0568C135.981 33.352 135.875 33.7023 135.878 34.0602C135.879 34.4169 135.986 34.7653 136.187 35.0598L145.054 49.1958ZM130.197 72.2635C130.422 73.8317 130.869 74.9763 131.491 75.6974C132.113 76.4185 133.158 76.7657 134.6 76.7657C136.966 76.7657 138.282 75.6707 138.282 74.0949C138.294 73.7413 138.221 73.39 138.07 73.0701C137.918 72.7503 137.693 72.4712 137.412 72.2559C136.84 71.8095 135.546 71.2601 133.559 70.6382C129.778 69.444 128.309 68.0285 128.309 65.6401C128.304 65.0103 128.438 64.3872 128.702 63.8153C128.965 63.2435 129.352 62.737 129.835 62.3321C130.854 61.4088 132.223 60.9357 133.936 60.9357C137.198 60.9357 139.636 62.5801 140.132 65.7393L137.645 66.2849C137.221 64.3772 136.203 63.2745 133.936 63.2745C131.872 63.2745 130.804 64.2703 130.804 65.6401C130.801 65.9357 130.872 66.2274 131.012 66.4881C131.151 66.7489 131.354 66.9703 131.601 67.1319C132.12 67.5134 133.314 67.9789 135.18 68.6008C137.347 69.3232 138.815 70.0684 139.583 70.8366C139.98 71.2479 140.288 71.7358 140.49 72.2705C140.691 72.8052 140.781 73.3754 140.754 73.9461C140.77 74.6456 140.629 75.3396 140.34 75.9769C140.051 76.6142 139.623 77.1785 139.087 77.6279C137.992 78.6009 136.5 79.0969 134.585 79.0969C130.48 79.0969 128.099 76.9335 127.595 72.7786L130.197 72.2635ZM142.689 72.1376C142.689 74.3276 143.261 76.0445 144.383 77.2654C144.936 77.8643 145.61 78.3381 146.361 78.6553C147.112 78.9724 147.921 79.1256 148.736 79.1044C149.54 79.1258 150.338 78.9725 151.077 78.655C151.815 78.3375 152.476 77.8633 153.013 77.2654C154.135 76.0445 154.703 74.3009 154.703 72.1376C154.703 69.9743 154.135 68.2841 152.964 67.0403C152.435 66.4431 151.783 65.9673 151.054 65.6453C150.324 65.3232 149.534 65.1627 148.736 65.1745C147.927 65.1592 147.124 65.3178 146.382 65.6397C145.639 65.9616 144.974 66.4392 144.432 67.0403C143.261 68.2841 142.689 69.9476 142.689 72.1376ZM148.721 67.4027C150.835 67.4027 152.303 69.1692 152.303 72.1528C152.303 75.1479 150.888 76.9297 148.721 76.9297C146.554 76.9297 145.062 75.2128 145.062 72.1528C145.062 69.0929 146.531 67.4027 148.721 67.4027ZM158.095 78.7305V67.6659H156.153V65.5522H158.145V63.6064C158.145 61.3934 159.24 60.5541 161.197 60.5541H163.235V62.7403H161.67C160.747 62.7403 160.476 63.015 160.476 64.11V65.5293H163.75V67.643H160.518V78.7076L158.095 78.7305ZM184.066 65.5447H181.88L178.568 75.0984H178.519L176.531 65.5447H174.143L177.054 78.7306H179.393L182.948 68.3833H182.998L186.554 78.7306H188.893L191.804 65.5447H189.416L187.477 75.0984H187.428L184.066 65.5447ZM201.709 78.7305V77.3379H201.659C201.487 77.7194 201.037 78.101 200.366 78.5092C199.573 78.9373 198.679 79.143 197.779 79.1044C194.769 79.1044 193.25 77.4867 193.25 75.289C193.25 73.0914 194.471 71.9773 197.68 71.1837C198.67 70.9659 199.637 70.6489 200.564 70.2375C200.793 70.141 200.988 69.9783 201.124 69.7703C201.26 69.5623 201.331 69.3185 201.327 69.07C201.327 68.0475 200.457 67.2768 198.74 67.2768C197.1 67.2768 196.07 68.0971 195.688 69.7644L193.574 69.0204C194.047 66.7312 195.837 65.1631 198.698 65.1631C201.785 65.1631 203.822 66.6892 203.822 70.0124V78.719L201.709 78.7305ZM195.627 75.1479C195.627 76.3688 196.421 76.964 198.015 76.964C200.228 76.964 201.472 75.8728 201.472 74.4764V71.5156H201.423C201.297 71.9163 200.873 72.2406 198.237 72.9617C196.173 73.534 195.627 74.1292 195.627 75.1479ZM164.745 67.6624H166.676L166.684 75.2282C166.684 78.0134 167.92 79.1046 170.209 79.1046C170.879 79.1016 171.547 79.0339 172.204 78.9024V76.7658H170.579C169.385 76.7658 169.053 76.556 169.053 75.0642V67.6624H172.185V65.5486H169.026V62.1606H167.458L166.653 65.5486H164.745V67.6624ZM226.07 75.8957C225.549 76.8885 224.76 77.7153 223.793 78.2825C222.826 78.8497 221.719 79.1344 220.599 79.1045C219.762 79.1314 218.93 78.9745 218.161 78.6449C217.391 78.3153 216.704 77.821 216.146 77.1968C215.001 75.925 214.429 74.2335 214.429 72.1223C214.429 70.0086 215.001 68.3413 216.123 67.0746C216.665 66.4569 217.335 65.9658 218.087 65.6361C218.84 65.3064 219.655 65.1462 220.476 65.1669C221.291 65.1432 222.1 65.3022 222.845 65.6323C223.59 65.9625 224.251 66.4553 224.78 67.0746C225.898 68.3184 226.448 70.0391 226.448 72.149C226.448 72.5001 226.417 72.8701 226.417 72.8701H216.879C216.951 75.2357 218.222 76.9526 220.534 76.9526C220.996 76.9822 221.459 76.918 221.896 76.7639C222.333 76.6099 222.734 76.369 223.075 76.056C223.545 75.6146 223.939 75.099 224.242 74.5298L226.07 75.8957ZM224.032 70.9701C223.933 68.9556 222.789 67.3379 220.476 67.3379C219.985 67.3102 219.495 67.3996 219.045 67.5986C218.595 67.7976 218.199 68.1005 217.89 68.4825C217.287 69.174 216.943 70.0532 216.917 70.9701H224.032ZM207.203 65.5482V78.7303L209.618 78.7265V70.9928C209.618 68.8256 210.411 67.7573 212.006 67.7573C212.355 67.7598 212.701 67.8271 213.025 67.9557L213.464 65.5711C213.099 65.3945 212.697 65.3094 212.292 65.3231C211.735 65.326 211.188 65.4801 210.711 65.769C210.234 66.0579 209.844 66.4708 209.583 66.9637H209.534V65.5482H207.203Z" fill="#002957"/>
<defs>
<linearGradient id="paint0_linear_1969_3714" x1="56.1043" y1="49.0002" x2="96.2188" y2="20.8009" gradientUnits="userSpaceOnUse">
<stop stop-color="#0070F4"/>
<stop offset="0.3821" stop-color="#0070F4"/>
<stop offset="0.475" stop-color="#0477F5"/>
<stop offset="0.6133" stop-color="#0E8CF7"/>
<stop offset="0.7799" stop-color="#1FADFA"/>
<stop offset="0.9671" stop-color="#36DAFE"/>
<stop offset="1" stop-color="#3AE3FF"/>
</linearGradient>
<linearGradient id="paint1_linear_1969_3714" x1="57.0733" y1="58.8648" x2="96.5345" y2="58.8648" gradientUnits="userSpaceOnUse">
<stop stop-color="#5BE92A"/>
<stop offset="0.3052" stop-color="#5BE92A"/>
<stop offset="0.6321" stop-color="#2ACE35"/>
<stop offset="0.9392" stop-color="#00B63E"/>
<stop offset="1" stop-color="#00B63E"/>
</linearGradient>
<radialGradient id="paint2_radial_1969_3714" cx="0" cy="0" r="1" gradientUnits="userSpaceOnUse" gradientTransform="translate(-11.9885 49.0153) scale(70.64 102.349)">
<stop stop-color="#3AE3FF"/>
<stop offset="1" stop-color="#0070F4"/>
</radialGradient>
</defs>
</svg>
