<svg width="131" height="38" viewBox="0 0 131 38" fill="none" xmlns="http://www.w3.org/2000/svg">
<g clip-path="url(#clip0_6325_716)">
<path fill-rule="evenodd" clip-rule="evenodd" d="M11.6099 1.79546C5.03254 4.73586 0.449219 11.334 0.449219 19.0015C0.449219 26.6679 5.03254 33.2651 11.6099 36.206C13.2465 36.9249 14.2599 37.1034 15.1251 37.1034C18.4029 37.1034 19.9041 26.6088 19.9041 19.001C19.9041 11.3922 18.4034 0.896973 15.1251 0.896973C14.2599 0.896973 13.2465 1.07656 11.6099 1.79443V1.79546Z" fill="url(#paint0_radial_6325_716)"/>
<path fill-rule="evenodd" clip-rule="evenodd" d="M30.9183 8.74186L22.3675 17.2858C21.8107 17.8421 21.4453 18.3852 21.4453 19.0229C21.4453 19.6613 21.8107 20.2031 22.3675 20.7595L30.9183 29.3034C31.4524 29.8389 31.9313 30.0679 32.5806 30.0679C34.8752 30.0679 37.2595 24.3704 37.2595 19.0229C37.2595 13.6749 34.8758 7.97852 32.5806 7.97852C31.9307 7.97852 31.4524 8.20759 30.9183 8.74245V8.74186Z" fill="url(#paint1_radial_6325_716)"/>
</g>
<path fill-rule="evenodd" clip-rule="evenodd" d="M64.3899 14.3246C63.3587 14.3246 62.5233 13.5278 62.5233 12.5437C62.5233 11.5591 63.3592 10.7622 64.3899 10.7622C65.4205 10.7622 66.2565 11.5591 66.2565 12.5437C66.2565 13.5278 65.4205 14.3246 64.3899 14.3246ZM62.7033 26.5001V15.6317C62.7033 15.6317 63.28 16.0057 64.3695 16.0057C65.4595 16.0057 66.0362 15.6317 66.0362 15.6317V26.5001H62.7033ZM104.57 15.6317V26.5001H104.571H107.904V15.6317C107.904 15.6317 107.327 16.0057 106.237 16.0057C105.147 16.0057 104.57 15.6317 104.57 15.6317ZM106.256 14.3246C105.225 14.3246 104.39 13.5278 104.39 12.5437C104.39 11.5591 105.225 10.7622 106.256 10.7622C107.287 10.7622 108.123 11.5591 108.123 12.5437C108.123 13.5278 107.287 14.3246 106.256 14.3246ZM98.7967 26.5001L103.903 11.1051H100.353L96.482 23.7361L92.6077 11.1051H89.0619L94.1672 26.5001H98.7967ZM76.6152 20.668C76.6152 18.5774 75.6277 17.3663 73.9199 17.3663C72.2355 17.3663 71.2481 18.5774 71.2481 20.668C71.2481 22.7591 72.2355 23.9697 73.9199 23.9697C75.6277 23.9697 76.6152 22.7586 76.6152 20.668ZM68.0365 20.668C68.0365 16.9918 70.4387 14.5053 73.9199 14.5053C77.4235 14.5053 79.8263 16.9923 79.8263 20.668C79.8263 24.3432 77.423 26.8312 73.9199 26.8312C70.4392 26.8312 68.0365 24.3437 68.0365 20.668ZM85.9089 22.6342V17.5076H85.9095H88.7271V15.113H85.9095V11.0934H83.5827L82.7499 15.113H80.8261V17.5076H82.7942V23.0678C82.7942 25.7742 84.0569 26.8307 86.6668 26.8307C87.7287 26.8307 88.7265 26.6358 88.7265 26.6358V23.9642H87.3701C86.2702 23.9642 85.9089 23.605 85.9089 22.6342ZM127.192 17.5076V22.6342C127.192 23.605 127.553 23.9642 128.653 23.9642H130.009V26.6358C130.009 26.6358 129.012 26.8307 127.95 26.8307C125.34 26.8307 124.076 25.7742 124.076 23.0678V17.5076H122.109V15.113H124.033L124.866 11.0934H127.192V15.113H130.009V17.5076H127.192ZM115.539 17.1464C116.999 17.1464 117.875 17.9611 117.987 19.3697H113.137C113.249 18.027 114.215 17.1464 115.539 17.1464ZM115.517 14.5058C112.215 14.5058 109.902 17.0367 109.902 20.6685C109.902 24.3657 112.216 26.8307 115.585 26.8307C117.83 26.8307 119.582 25.9512 120.728 24.1901L118.459 22.4515C117.628 23.6397 116.752 24.1901 115.585 24.1901C114.124 24.1901 113.226 23.2433 113.137 21.5924H121.067C121.067 21.5924 121.108 21.1619 121.108 20.6685C121.108 16.9862 118.84 14.5058 115.517 14.5058ZM52.6869 26.5005H49.3535V11.0938H52.6869V26.5005ZM58.2197 26.5005H62.0362L56.7868 18.4222L61.7749 11.0928H58.1625L53.5163 18.1151C53.407 18.2727 53.3534 18.4544 53.3544 18.636C53.355 18.8181 53.4101 18.9997 53.52 19.1563L58.2197 26.5005Z" fill="#002957"/>
<defs>
<radialGradient id="paint0_radial_6325_716" cx="0" cy="0" r="1" gradientUnits="userSpaceOnUse" gradientTransform="translate(-4.22026 19.0059) scale(26.4124 38.2384)">
<stop stop-color="#3AE3FF"/>
<stop offset="1" stop-color="#0070F4"/>
</radialGradient>
<radialGradient id="paint1_radial_6325_716" cx="0" cy="0" r="1" gradientUnits="userSpaceOnUse" gradientTransform="translate(20.8225 18.918) scale(16.5038 27.1764)">
<stop stop-color="#5BE92A"/>
<stop offset="0.39166" stop-color="#2DCF34"/>
<stop offset="1" stop-color="#00B63E"/>
<stop offset="1" stop-color="#00B63E"/>
</radialGradient>
<clipPath id="clip0_6325_716">
<rect width="37.4033" height="36.8" fill="white" transform="translate(0.300781 0.600098)"/>
</clipPath>
</defs>
</svg>
