<svg width="281" height="96" viewBox="0 0 281 96" fill="none" xmlns="http://www.w3.org/2000/svg">
<path fill-rule="evenodd" clip-rule="evenodd" d="M154.906 21.4961C154.906 23.3667 156.46 24.8797 158.38 24.8797C160.295 24.8797 161.85 23.3667 161.853 21.4961C161.853 19.6256 160.299 18.1125 158.38 18.1125C156.46 18.1125 154.906 19.6293 154.906 21.4961ZM155.237 27.3637V48.0001H161.439V27.3637C161.439 27.3637 160.367 28.0751 158.338 28.0751C156.31 28.0751 155.237 27.3637 155.237 27.3637ZM233.157 48.0001V27.3637C233.157 27.3637 234.229 28.0751 236.258 28.0751C238.286 28.0751 239.359 27.3637 239.359 27.3637V48.0001H233.157ZM232.822 21.4961C232.822 23.3667 234.376 24.8797 236.296 24.8797C238.211 24.8797 239.77 23.3667 239.77 21.4961C239.77 19.6256 238.215 18.1125 236.296 18.1125C234.376 18.1125 232.822 19.6293 232.822 21.4961ZM231.915 18.7675L222.411 48.0001H213.796L204.293 18.7675H210.894L218.106 42.7498L225.306 18.7675H231.915ZM176.114 25.2222C169.637 25.2222 165.165 29.9457 165.165 36.9235C165.165 43.9052 169.637 48.6286 176.114 48.6249C182.637 48.6249 187.108 43.9014 187.108 36.9235C187.108 29.9457 182.637 25.2222 176.114 25.2222ZM176.114 30.6532C179.291 30.6532 181.131 32.9528 181.131 36.9235C181.131 40.8942 179.291 43.1939 176.114 43.1939C172.979 43.1939 171.142 40.8942 171.142 36.9235C171.142 32.9528 172.979 30.6532 176.114 30.6532ZM198.425 30.9242V40.6571C198.425 42.5014 199.099 43.1826 201.143 43.1826H203.668V48.256C203.668 48.256 201.813 48.6286 199.837 48.6286C194.982 48.6286 192.629 46.6226 192.629 41.4814V30.9242H188.967V26.3777H192.546L194.097 18.7449H198.425V26.3777H203.668V30.9242H198.425ZM275.257 40.6571V30.9242H280.496V26.3777H275.254V18.7449H270.925L269.375 26.3777H265.795V30.9242H269.457V41.4814C269.457 46.6226 271.81 48.6286 276.665 48.6286C278.641 48.6286 280.5 48.256 280.5 48.256V43.1826H277.975C275.931 43.1826 275.257 42.5014 275.257 40.6571ZM243.081 36.9274C243.081 30.0323 247.387 25.2261 253.529 25.2261C259.713 25.2261 263.936 29.9382 263.936 36.9274C263.936 37.8646 263.857 38.6813 263.857 38.6813H249.096C249.261 41.8164 250.936 43.6117 253.65 43.6117C255.822 43.6117 257.451 42.5654 258.998 40.311L263.217 43.6117C261.087 46.9539 257.824 48.625 253.646 48.625C247.383 48.6287 243.081 43.9467 243.081 36.9274ZM258.125 34.4584C257.914 31.7824 256.284 30.2356 253.571 30.2356C251.106 30.2356 249.307 31.9066 249.1 34.4584H258.125ZM130.396 18.7449H136.599V48.0001H130.396V18.7449ZM153.999 48.0001H146.896L138.15 34.0556C137.946 33.7583 137.841 33.412 137.841 33.0695C137.841 32.7233 137.939 32.3808 138.142 32.0797L146.791 18.7449H153.513L144.232 32.6631L153.999 48.0001ZM130.397 68.3541C130.397 71.5194 131.281 73.9959 132.655 75.396C134.055 76.7697 135.775 77.4585 137.732 77.4585C141.56 77.4585 144.062 74.9556 144.382 70.9548L141.755 70.5371C141.462 73.6045 140.114 75.1513 137.732 75.1513C134.909 75.1513 132.971 72.8931 132.971 68.3541C132.971 64.1087 134.984 61.8504 137.732 61.8504C140.039 61.8504 141.439 63.243 141.88 66.0169L144.382 65.5991C144.16 63.7586 143.426 62.2908 142.222 61.188C141.044 60.0853 139.55 59.5433 137.732 59.5433C135.696 59.5433 133.98 60.3036 132.531 61.8504C131.108 63.3973 130.397 65.5577 130.397 68.3541ZM146.302 70.5898C146.302 72.7501 146.867 74.4401 147.969 75.6444C149.098 76.8451 150.521 77.4585 152.26 77.4585C153.98 77.4585 155.38 76.8451 156.483 75.6444C157.586 74.4438 158.15 72.7501 158.15 70.5898C158.15 68.4558 157.589 66.7885 156.434 65.5615C155.305 64.3345 153.908 63.7211 152.264 63.7211C150.57 63.7211 149.174 64.3345 148.018 65.5615C146.867 66.7847 146.302 68.4558 146.302 70.5898ZM152.264 65.9002C154.349 65.9002 155.798 67.6428 155.798 70.586C155.798 73.5556 154.349 75.2982 152.264 75.2982C150.126 75.2982 148.654 73.6045 148.654 70.586C148.654 67.5675 150.103 65.9002 152.264 65.9002ZM161.01 77.0858V64.086H163.34V65.3356H163.389C164.078 64.4285 165.5 63.7172 166.95 63.7172C169.795 63.7172 171.639 65.5576 171.639 68.5761V77.0896H169.234V69.2611C169.234 67.0292 168.327 65.9227 166.487 65.9227C164.62 65.9227 163.393 67.0518 163.393 68.9148V77.0858H161.01ZM175.437 64.086V77.0858H177.823V68.9148C177.823 67.0518 179.05 65.9227 180.917 65.9227C182.757 65.9227 183.664 67.0292 183.664 69.2611V77.0896H186.069V68.5761C186.069 65.5576 184.229 63.7172 181.38 63.7172C179.931 63.7172 178.508 64.4285 177.819 65.3356H177.77V64.086H175.437ZM200.409 74.2933C199.4 76.1337 197.586 77.4585 195.008 77.4585C193.216 77.4585 191.745 76.8451 190.616 75.5955C189.487 74.3422 188.922 72.6749 188.922 70.5898C188.922 68.5047 189.487 66.86 190.589 65.6104C191.718 64.3571 193.141 63.7211 194.884 63.7211C196.626 63.7211 198.026 64.3345 199.129 65.5878C200.232 66.8148 200.774 68.5122 200.774 70.5936C200.774 70.9398 200.744 71.3049 200.744 71.3049H191.35C191.425 73.6346 192.674 75.3283 194.959 75.3283C196.039 75.3283 196.875 75.0347 197.462 74.4438C198.075 73.8303 198.222 73.6083 198.617 72.9459L200.409 74.2933ZM198.395 69.4343C198.297 67.4471 197.168 65.8513 194.887 65.8513C193.785 65.8513 192.949 66.2201 192.336 66.9804C191.722 67.7143 191.402 68.5273 191.38 69.4343H198.395ZM208.618 77.4584C211.685 77.4584 213.699 75.618 214.165 72.5995L211.787 72.0086C211.493 73.898 210.511 75.2981 208.67 75.2981C206.412 75.2981 205.038 73.5555 205.038 70.5859C205.038 67.6164 206.461 65.9001 208.644 65.9001C210.484 65.9001 211.565 67.1384 211.836 68.881L214.169 68.5121C213.996 67.0895 213.356 65.9491 212.351 65.0646C211.369 64.1575 210.142 63.7172 208.644 63.7172C206.95 63.7172 205.55 64.3307 204.398 65.5576C203.243 66.7583 202.678 68.4519 202.678 70.5859C202.678 72.7237 203.22 74.391 204.323 75.618C205.426 76.845 206.875 77.4584 208.618 77.4584ZM217.5 66.1712H215.595V64.0861H217.492L218.283 60.7439H219.83V64.0861H222.946V66.1712H219.856V73.4727C219.856 74.9443 220.183 75.1513 221.346 75.1513H222.95V77.2552C222.95 77.2552 222.043 77.4547 220.981 77.4547C218.727 77.4547 217.504 76.3783 217.504 73.6308V66.1712H217.5Z" fill="#002957"/>
<path d="M85.9883 18.2256C79.1121 18.2369 72.217 20.6833 66.6316 25.5648C56.0782 34.7934 53.6281 49.8331 59.8683 61.7264L97.3359 29.0199C99.5 27.2283 100.125 25.9449 100.091 24.1421C100.049 21.8877 96.952 18.2256 86.0561 18.2256C86.0373 18.2256 86.0147 18.2256 85.9883 18.2256Z" fill="url(#paint0_linear_1969_3878)"/>
<path d="M66.598 70.3603C72.1833 75.2418 79.0746 77.6882 85.9546 77.6995C96.9108 77.7146 100.02 74.045 100.061 71.783C100.095 69.9802 99.4701 68.693 97.3059 66.9052L59.8384 34.1987C53.5944 46.092 56.0446 61.1317 66.598 70.3603Z" fill="url(#paint1_linear_1969_3878)"/>
<path d="M29.9471 2.56854C12.5927 10.3368 0.5 27.7552 0.5 48.0001C0.5 68.245 12.5927 85.6634 29.9471 93.4316C34.2641 95.3286 36.9401 95.799 39.2209 95.799C47.8699 95.799 51.8255 68.0869 51.8255 48.0001C51.8255 27.9095 47.8661 0.201172 39.2209 0.201172C36.9401 0.201172 34.2641 0.675397 29.9471 2.56854Z" fill="url(#paint2_radial_1969_3878)"/>
<defs>
<linearGradient id="paint0_linear_1969_3878" x1="55.4064" y1="50.9136" x2="99.6615" y2="19.7187" gradientUnits="userSpaceOnUse">
<stop stop-color="#0070F4"/>
<stop offset="0.3821" stop-color="#0070F4"/>
<stop offset="0.475" stop-color="#0477F5"/>
<stop offset="0.6133" stop-color="#0E8CF7"/>
<stop offset="0.7799" stop-color="#1FADFA"/>
<stop offset="0.9671" stop-color="#36DAFE"/>
<stop offset="1" stop-color="#3AE3FF"/>
</linearGradient>
<linearGradient id="paint1_linear_1969_3878" x1="56.4447" y1="55.9495" x2="100.06" y2="55.9495" gradientUnits="userSpaceOnUse">
<stop stop-color="#5BE92A"/>
<stop offset="0.3052" stop-color="#5BE92A"/>
<stop offset="0.6321" stop-color="#2ACE35"/>
<stop offset="0.9392" stop-color="#00B63E"/>
<stop offset="1" stop-color="#00B63E"/>
</linearGradient>
<radialGradient id="paint2_radial_1969_3878" cx="0" cy="0" r="1" gradientUnits="userSpaceOnUse" gradientTransform="translate(-11.8189 48.0152) scale(69.6807 100.963)">
<stop stop-color="#3AE3FF"/>
<stop offset="1" stop-color="#0070F4"/>
</radialGradient>
</defs>
</svg>
