<svg width="281" height="98" viewBox="0 0 281 98" fill="none" xmlns="http://www.w3.org/2000/svg">
<path fill-rule="evenodd" clip-rule="evenodd" d="M152.544 22.1142C152.544 24.0117 154.12 25.5465 156.068 25.5465C158.011 25.5465 159.592 24.0117 159.592 22.1142C159.592 20.2166 158.015 18.6818 156.068 18.6818C154.12 18.6818 152.544 20.2205 152.544 22.1142ZM152.883 28.0663V49H159.175V28.0663C159.175 28.0663 158.087 28.7878 156.029 28.7878C153.971 28.7878 152.883 28.0663 152.883 28.0663ZM231.922 49V28.0663C231.922 28.0663 233.01 28.7878 235.068 28.7878C237.126 28.7878 238.214 28.0663 238.214 28.0663V49H231.922ZM231.583 22.1142C231.583 24.0117 233.159 25.5465 235.107 25.5465C237.05 25.5465 238.63 24.0117 238.63 22.1142C238.63 20.2166 237.054 18.6818 235.107 18.6818C233.159 18.6818 231.583 20.2205 231.583 22.1142ZM230.662 19.3461L221.022 49.0001H212.283L202.642 19.3461H209.339L216.654 43.674L223.958 19.3461H230.662ZM174.058 25.8939C167.487 25.8939 162.951 30.6854 162.951 37.7638C162.951 44.8461 167.487 49.6376 174.058 49.6338C180.67 49.6338 185.206 44.8423 185.206 37.7638C185.206 30.6854 180.67 25.8939 174.058 25.8939ZM174.058 31.4032C177.28 31.4032 179.147 33.7359 179.147 37.7638C179.147 41.7918 177.28 44.1245 174.058 44.1245C170.881 44.1245 169.014 41.7918 169.014 37.7638C169.014 33.7359 170.877 31.4032 174.058 31.4032ZM196.69 31.6781V41.5512C196.69 43.422 197.374 44.1131 199.447 44.1131H202.009V49.2597C202.009 49.2597 200.127 49.6376 198.122 49.6376C193.197 49.6376 190.811 47.6027 190.811 42.3874V31.6781H187.096V27.066H190.727L192.3 19.3232H196.69V27.066H202.009V31.6781H196.69ZM274.63 41.5512V31.6781H279.944V27.066H274.626V19.3232H270.235L268.662 27.066H265.031V31.6781H268.746V42.3874C268.746 47.6027 271.133 49.6376 276.058 49.6376C278.066 49.6376 279.948 49.2597 279.948 49.2597V44.1131H277.386C275.313 44.1131 274.63 43.422 274.63 41.5512ZM241.99 37.7677C241.99 30.7732 246.358 25.8977 252.589 25.8977C258.862 25.8977 263.145 30.6778 263.145 37.7677C263.145 38.7183 263.065 39.5468 263.065 39.5468H248.091C248.259 42.7272 249.954 44.5483 252.711 44.5483C254.914 44.5483 256.571 43.4869 258.136 41.2L262.42 44.5483C260.259 47.9386 256.949 49.6338 252.711 49.6338C246.354 49.6376 241.99 44.8881 241.99 37.7677ZM257.25 35.2631C257.037 32.5485 255.384 30.9794 252.631 30.9794C250.13 30.9794 248.305 32.6745 248.095 35.2631H257.25ZM127.681 19.3232H133.973V49H127.681V19.3232ZM151.623 49H144.419L135.546 34.8546C135.34 34.553 135.233 34.2017 135.233 33.8543C135.233 33.503 135.332 33.1556 135.538 32.8502L144.312 19.3232H151.131L141.716 33.4419L151.623 49ZM127.681 61.1411V78.5509H130.17V71.3655H137.654V69.174H130.17V63.4548H138.352V61.1411H127.681ZM147.042 78.547V65.3675H149.405V66.6351H149.455C150.15 65.7149 151.593 64.9933 153.063 64.9933C155.945 64.9933 157.812 66.8603 157.812 69.9185V78.547H155.373V70.6133C155.373 68.3493 154.453 67.2307 152.586 67.2307C150.696 67.2307 149.451 68.376 149.451 70.2659V78.547H147.042ZM169.255 77.1573V78.5432H171.37V69.8383C171.37 66.532 169.331 64.9895 166.246 64.9895C163.386 64.9895 161.596 66.5587 161.122 68.8456L163.238 69.5901C163.635 67.9255 164.654 67.1047 166.296 67.1047C168.01 67.1047 168.88 67.8759 168.88 68.8953C168.88 69.4183 168.632 69.7887 168.109 70.0636C167.609 70.3384 166.639 70.6362 165.223 71.0104C162.016 71.8084 160.798 72.9003 160.798 75.1147C160.798 77.3062 162.317 78.9212 165.326 78.9212C166.395 78.9212 167.239 78.7226 167.911 78.3256C168.583 77.9018 169.033 77.5314 169.205 77.1573H169.255ZM165.547 76.7869C163.955 76.7869 163.161 76.1875 163.161 74.9696C163.161 73.9502 163.707 73.3546 165.769 72.7858C168.407 72.0642 168.827 71.7396 168.953 71.3426H169.003V74.3015C169.003 75.6912 167.762 76.7869 165.547 76.7869ZM174.749 78.547V65.3675H177.112V66.6351H177.162C177.856 65.7149 179.3 64.9933 180.769 64.9933C183.652 64.9933 185.519 66.8603 185.519 69.9185V78.547H183.079V70.6133C183.079 68.3493 182.159 67.2307 180.292 67.2307C178.402 67.2307 177.158 68.376 177.158 70.2659V78.547H174.749ZM207.675 78.9288C210.29 78.9288 212.13 77.5849 213.149 75.7179L211.328 74.3511C210.931 75.0192 210.782 75.2445 210.16 75.8668C209.561 76.4662 208.717 76.7641 207.621 76.7641C205.307 76.7641 204.04 75.046 203.964 72.6827H213.485C213.485 72.6827 213.516 72.3123 213.516 71.9611C213.516 69.8498 212.97 68.1317 211.851 66.887C210.733 65.6195 209.316 64.9972 207.549 64.9972C205.785 64.9972 204.341 65.6462 203.196 66.9138C202.077 68.1851 201.505 69.8498 201.505 71.9649C201.505 74.08 202.077 75.7714 203.223 77.0389C204.364 78.3065 205.857 78.9288 207.675 78.9288ZM207.552 67.1619C209.866 67.1619 211.011 68.7769 211.111 70.7928H203.994C204.017 69.8727 204.341 69.0518 204.964 68.3073C205.586 67.5361 206.434 67.1619 207.552 67.1619ZM199.577 74.0037C199.103 77.0618 197.065 78.9288 193.953 78.9288C192.185 78.9288 190.719 78.3065 189.6 77.0618C188.482 75.8172 187.932 74.1258 187.932 71.9611C187.932 69.7963 188.505 68.0821 189.673 66.8603C190.841 65.6157 192.262 64.9933 193.976 64.9933C195.492 64.9933 196.736 65.44 197.733 66.3602C198.752 67.2574 199.401 68.4142 199.573 69.8574L197.21 70.2316C196.935 68.4638 195.839 67.2077 193.976 67.2077C191.761 67.2077 190.318 68.9487 190.318 71.9573C190.318 74.9696 191.712 76.7335 193.999 76.7335C195.866 76.7335 196.858 75.317 197.16 73.4004L199.577 74.0037ZM140.765 65.5737V78.5509H143.178V65.5737C143.178 65.5737 142.582 65.757 141.972 65.757C141.361 65.757 140.765 65.5737 140.765 65.5737ZM143.548 62.3361C143.548 61.4618 142.838 60.7555 141.964 60.7555C141.09 60.7555 140.38 61.4656 140.38 62.3361C140.38 63.2104 141.09 63.9167 141.964 63.9167C142.838 63.9167 143.548 63.2104 143.548 62.3361Z" fill="#002957"/>
<path d="M30.3716 2.91369C12.767 10.7939 0.5 28.4633 0.5 49C0.5 69.5367 12.767 87.2061 30.3716 95.0864C34.7507 97.0106 37.4653 97.4878 39.779 97.4878C48.5526 97.4878 52.569 69.3764 52.569 49C52.569 28.6199 48.5526 0.512207 39.779 0.512207C37.4653 0.512207 34.7507 0.993267 30.3716 2.91369Z" fill="url(#paint0_radial_1969_4040)"/>
<path d="M89.664 17.2233L57.5207 45.6593C54.9322 47.9501 55.6576 52.1804 58.8723 53.4556C68.2606 57.1819 79.3555 55.6165 87.4381 48.4655C96.0781 40.8182 98.8041 28.9788 95.2649 18.7085C94.7495 17.2081 93.3712 16.3452 91.9547 16.3452C91.1491 16.349 90.3359 16.6277 89.664 17.2233Z" fill="url(#paint1_linear_1969_4040)"/>
<path d="M58.6971 44.9759C55.5702 46.2396 54.8525 50.3439 57.38 52.5812L89.6606 81.1394C91.5238 82.7849 94.4483 81.9984 95.2577 79.6504C98.8008 69.3801 96.0748 57.5407 87.4309 49.8934C82.166 45.2355 75.6259 42.9485 69.1125 42.9485C65.5656 42.9485 62.0226 43.6281 58.6971 44.9759Z" fill="url(#paint2_linear_1969_4040)"/>
<defs>
<radialGradient id="paint0_radial_1969_4040" cx="0" cy="0" r="1" gradientUnits="userSpaceOnUse" gradientTransform="translate(-11.9974 49.0153) scale(70.6901 102.418)">
<stop stop-color="#3AE3FF"/>
<stop offset="1" stop-color="#0070F4"/>
</radialGradient>
<linearGradient id="paint1_linear_1969_4040" x1="54.9463" y1="45.7006" x2="95.2154" y2="16.1156" gradientUnits="userSpaceOnUse">
<stop stop-color="#0070F4"/>
<stop offset="0.3821" stop-color="#0070F4"/>
<stop offset="0.475" stop-color="#0477F5"/>
<stop offset="0.6133" stop-color="#0E8CF7"/>
<stop offset="0.7799" stop-color="#1FADFA"/>
<stop offset="0.9671" stop-color="#36DAFE"/>
<stop offset="1" stop-color="#3AE3FF"/>
</linearGradient>
<linearGradient id="paint2_linear_1969_4040" x1="55.8477" y1="62.4804" x2="96.7658" y2="62.4804" gradientUnits="userSpaceOnUse">
<stop stop-color="#5BE92A"/>
<stop offset="0.3052" stop-color="#5BE92A"/>
<stop offset="0.6321" stop-color="#2ACE35"/>
<stop offset="0.9392" stop-color="#00B63E"/>
<stop offset="1" stop-color="#00B63E"/>
</linearGradient>
</defs>
</svg>
