<svg width="24" height="19" viewBox="0 0 24 19" fill="none" xmlns="http://www.w3.org/2000/svg">
<path d="M23.1797 4.50391C23.0391 4.1875 22.793 3.90625 22.4766 3.73047L15.5156 0.25C15.1641 0.742188 14.4961 2.04297 12 2.04297C9.43359 2.04297 8.76562 0.707031 8.44922 0.25L1.48828 3.73047C1.17188 3.90625 0.925781 4.1875 0.820312 4.50391C0.679688 4.85547 0.714844 5.24219 0.890625 5.55859L2.75391 9.28516C3.07031 9.98828 3.91406 10.2344 4.54688 9.91797L5.39062 9.53125C5.60156 9.42578 5.8125 9.56641 5.8125 9.77734V16.2812C5.8125 17.3711 6.69141 18.25 7.78125 18.25H16.2188C17.3086 18.25 18.1875 17.3711 18.1875 16.2812V9.77734C18.1875 9.56641 18.3984 9.42578 18.5742 9.53125L19.418 9.91797C20.0859 10.2695 20.8945 9.98828 21.2461 9.32031L23.1094 5.55859C23.25 5.24219 23.2852 4.85547 23.1797 4.50391ZM19.875 8.26562L17.2734 7.03516C16.9219 6.85938 16.5 7.14062 16.5 7.5625V16.2812C16.5 16.457 16.3594 16.5625 16.2188 16.5625H7.78125C7.60547 16.5625 7.5 16.457 7.5 16.2812V7.5625C7.5 7.14062 7.04297 6.85938 6.69141 7.03516L4.125 8.26562L2.54297 5.10156L7.99219 2.39453C8.94141 3.23828 10.3828 3.73047 12 3.73047C13.582 3.73047 15.0234 3.23828 15.9727 2.39453L21.4219 5.10156L19.875 8.26562Z" fill="#00B63E"/>
</svg>
