<svg width="19" height="19" viewBox="0 0 19 19" fill="none" xmlns="http://www.w3.org/2000/svg">
<path d="M9.26562 1.02344L8.48438 1.76562C8.28906 1.96094 8.28906 2.27344 8.48438 2.42969L14.5391 8.48438H1.21875C0.945312 8.48438 0.75 8.71875 0.75 8.95312V10.0469C0.75 10.3203 0.945312 10.5156 1.21875 10.5156H14.5391L8.48438 16.6094C8.28906 16.7656 8.28906 17.0781 8.48438 17.2734L9.26562 18.0156C9.42188 18.2109 9.73438 18.2109 9.92969 18.0156L18.0938 9.85156C18.2891 9.65625 18.2891 9.38281 18.0938 9.1875L9.92969 1.02344C9.73438 0.828125 9.42188 0.828125 9.26562 1.02344Z" fill="white"/>
</svg>
