<svg width="28" height="20" viewBox="0 0 28 20" fill="none" xmlns="http://www.w3.org/2000/svg">
<path d="M0.648096 19.8122C0.898972 20.0626 1.35891 20.0626 1.60979 19.8122L9.871 11.5339L13.3833 15.0817C13.6341 15.3322 14.0941 15.3322 14.345 15.0817L25.0313 4.38261L26.2857 5.59304C26.9129 6.26087 28 5.80174 28 4.88348V0.667826C28 0.333913 27.6655 0 27.331 0H23.1079C22.188 0 21.7281 1.08522 22.3971 1.7113L23.6097 2.96348L13.885 12.7443L10.3309 9.19652C10.0801 8.94609 9.62012 8.94609 9.36925 9.19652L0.188157 18.393C-0.062719 18.6435 -0.062719 19.1026 0.188157 19.353L0.648096 19.8122Z" fill="#FFA930"/>
</svg>
