<svg width="30" height="22" viewBox="0 0 30 22" fill="none" xmlns="http://www.w3.org/2000/svg">
<path d="M0.694389 21.7934C0.963184 22.0689 1.45598 22.0689 1.72477 21.7934L10.5761 12.6873L14.3392 16.5899C14.608 16.8654 15.1008 16.8654 15.3696 16.5899L26.8193 4.82087L28.1632 6.15235C28.8352 6.88696 30 6.38191 30 5.37183V0.734609C30 0.367304 29.6416 0 29.2832 0H24.7585C23.7729 0 23.2801 1.19374 23.9969 1.88243L25.2961 3.25983L14.8768 14.0188L11.0689 10.1162C10.8001 9.8407 10.3073 9.8407 10.0385 10.1162L0.201597 20.2323C-0.0671989 20.5078 -0.0671989 21.0129 0.201597 21.2884L0.694389 21.7934Z" fill="#0066FF"/>
<path d="M0.694389 21.7934C0.963184 22.0689 1.45598 22.0689 1.72477 21.7934L10.5761 12.6873L14.3392 16.5899C14.608 16.8654 15.1008 16.8654 15.3696 16.5899L26.8193 4.82087L28.1632 6.15235C28.8352 6.88696 30 6.38191 30 5.37183V0.734609C30 0.367304 29.6416 0 29.2832 0H24.7585C23.7729 0 23.2801 1.19374 23.9969 1.88243L25.2961 3.25983L14.8768 14.0188L11.0689 10.1162C10.8001 9.8407 10.3073 9.8407 10.0385 10.1162L0.201597 20.2323C-0.0671989 20.5078 -0.0671989 21.0129 0.201597 21.2884L0.694389 21.7934Z" fill="white" fill-opacity="0.2"/>
</svg>
