<svg width="15" height="14" viewBox="0 0 15 14" fill="none" xmlns="http://www.w3.org/2000/svg">
<path d="M7.1875 0.21875L6.5625 0.8125C6.40625 0.96875 6.40625 1.21875 6.5625 1.34375L11.4062 6.1875L0.75 6.1875C0.53125 6.1875 0.375 6.375 0.375 6.5625L0.375 7.4375C0.375 7.65625 0.53125 7.8125 0.75 7.8125L11.4062 7.8125L6.5625 12.6875C6.40625 12.8125 6.40625 13.0625 6.5625 13.2187L7.1875 13.8125C7.3125 13.9687 7.5625 13.9687 7.71875 13.8125L14.25 7.28125C14.4062 7.125 14.4062 6.90625 14.25 6.75L7.71875 0.21875C7.5625 0.0625 7.3125 0.0625 7.1875 0.21875Z" fill="#00B63E"/>
</svg>
