<svg width="37" height="26" viewBox="0 0 37 26" fill="none" xmlns="http://www.w3.org/2000/svg">
<path d="M36 8H34.125C33.5625 6.75 32.75 5.6875 31.8125 4.75L33 0H31C29.125 0 27.5 0.875 26.4375 2.1875C25.9375 2.125 25.4375 2 25 2H17C12.125 2 8.125 5.4375 7.1875 10H4.5C3.5625 10 2.8125 9.1875 3 8.25C3.125 7.5 3.8125 7 4.5 7H4.5625C4.8125 7 5 6.875 5 6.625V5.4375C5 5.1875 4.8125 5 4.5625 5C2.8125 5 1.25 6.3125 1 8.0625C0.75 10.1875 2.375 12 4.5 12H7C7 15.3125 8.5625 18.1875 11 20V25C11 25.5625 11.4375 26 12 26H16C16.5 26 17 25.5625 17 25V22H25V25C25 25.5625 25.4375 26 26 26H30C30.5 26 31 25.5625 31 25V20C31.6875 19.4375 32.375 18.75 32.9375 18H36C36.5 18 37 17.5625 37 17V9C37 8.5 36.5 8 36 8ZM28 12C27.4375 12 27 11.5625 27 11C27 10.5 27.4375 10 28 10C28.5 10 29 10.5 29 11C29 11.5625 28.5 12 28 12Z" fill="#0066FF"/>
</svg>
