<svg width="22" height="17" viewBox="0 0 22 17" fill="none" xmlns="http://www.w3.org/2000/svg">
<path fill-rule="evenodd" clip-rule="evenodd" d="M0 8.5V12.2188C0 13.1152 0.71276 13.8125 1.62917 13.8125H2.17222C2.17222 15.5723 3.59774 17 5.43056 17C7.22943 17 8.68889 15.5723 8.68889 13.8125H13.0333C13.0333 15.5723 14.4589 17 16.2917 17C18.0905 17 19.55 15.5723 19.55 13.8125H20.6361C21.2131 13.8125 21.7222 13.3477 21.7222 12.75C21.7222 12.1855 21.2131 11.6875 20.6361 11.6875V7.90234C20.6361 7.33789 20.3985 6.77344 19.9912 6.375L17.3778 3.81836C16.9365 3.41992 16.3935 3.1875 15.8165 3.1875H14.1667V5.3125H15.8165L18.4639 7.90234V8.5H14.1667H14.1194H0ZM3.80139 13.8125C3.80139 12.9492 4.51415 12.2188 5.43056 12.2188C6.31302 12.2188 7.05972 12.9492 7.05972 13.8125C7.05972 14.709 6.31302 15.4062 5.43056 15.4062C4.51415 15.4062 3.80139 14.709 3.80139 13.8125ZM17.9208 13.8125C17.9208 14.709 17.1741 15.4062 16.2917 15.4062C15.3753 15.4062 14.6625 14.709 14.6625 13.8125C14.6625 12.9492 15.3753 12.2188 16.2917 12.2188C17.1741 12.2188 17.9208 12.9492 17.9208 13.8125Z" fill="url(#paint0_radial_6301_43113)"/>
<path fill-rule="evenodd" clip-rule="evenodd" d="M13.2217 3.5V3.1875V1.59375C13.2217 0.730469 12.475 0 11.5925 0L1.62917 0C0.71276 0 0 0.730469 0 1.59375L0 7.5H13.2217V5.3125V5V3.5Z" fill="url(#paint1_radial_6301_43113)"/>
<defs>
<radialGradient id="paint0_radial_6301_43113" cx="0" cy="0" r="1" gradientUnits="userSpaceOnUse" gradientTransform="translate(25.7992 3.2248) rotate(162.795) scale(25.3253 14.128)">
<stop stop-color="#3AE3FF"/>
<stop offset="1" stop-color="#0070F4"/>
</radialGradient>
<radialGradient id="paint1_radial_6301_43113" cx="0" cy="0" r="1" gradientUnits="userSpaceOnUse" gradientTransform="translate(12.175) rotate(129.192) scale(9.67696 12.4223)">
<stop stop-color="#5BE92A"/>
<stop offset="0.0392157" stop-color="#2DCF34"/>
<stop offset="0.921569" stop-color="#00B63E"/>
<stop offset="1" stop-color="#00B63E"/>
</radialGradient>
</defs>
</svg>
