<svg width="19" height="15" viewBox="0 0 19 15" fill="none" xmlns="http://www.w3.org/2000/svg">
<path d="M14 5.5C14 2.75 11.0625 0.5 7.5 0.5C3.90625 0.5 1 2.75 1 5.5C1 6.59375 1.4375 7.5625 2.1875 8.375C1.75 9.34375 1.0625 10.0938 1.0625 10.0938C1 10.1562 0.96875 10.2812 1 10.375C1.0625 10.4688 1.125 10.5 1.25 10.5C2.375 10.5 3.3125 10.125 4 9.71875C5 10.2188 6.21875 10.5 7.5 10.5C11.0625 10.5 14 8.28125 14 5.5ZM17.8125 12.375C18.5312 11.5625 19 10.5938 19 9.5C19 7.4375 17.3125 5.625 14.9375 4.875C14.9688 5.09375 15 5.3125 15 5.5C15 8.8125 11.625 11.5 7.5 11.5C7.15625 11.5 6.8125 11.5 6.5 11.4688C7.46875 13.25 9.78125 14.5 12.5 14.5C13.7812 14.5 14.9688 14.2188 15.9688 13.7188C16.6562 14.125 17.5938 14.5 18.75 14.5C18.8438 14.5 18.9375 14.4688 18.9688 14.375C19 14.2812 19 14.1562 18.9062 14.0938C18.9062 14.0938 18.2188 13.3438 17.8125 12.375Z" fill="#00B63E"/>
</svg>
