<svg width="124" height="40" viewBox="0 0 124 40" fill="none" xmlns="http://www.w3.org/2000/svg">
<g clip-path="url(#clip0_6301_42851)">
<path d="M40.7476 11.88L24.9127 25.7692C23.6016 23.2589 23.1709 20.3781 23.6905 17.5918C24.2101 14.8056 25.6493 12.2766 27.776 10.4132C30.0389 8.41828 32.945 7.31494 35.9558 7.30762C40.5877 7.30762 41.8997 8.85467 41.9225 9.81729C41.92 10.2336 41.8108 10.6423 41.605 11.0037C41.3991 11.3651 41.1037 11.6669 40.7476 11.88Z" fill="url(#paint0_radial_6301_42851)"/>
<path d="M16.5371 0C15.1602 0.0440885 13.8103 0.383222 12.5819 0.993507C8.83186 2.63271 5.64763 5.30095 3.41463 8.67523C1.18164 12.0495 -0.00455155 15.9851 1.31248e-05 20.0056C0.000567217 24.0236 1.18888 27.9556 3.42139 31.3271C5.65391 34.6987 8.83541 37.3657 12.5819 39.0065C13.8124 39.6114 15.161 39.9502 16.5371 40C20.2389 40 21.9231 28.4053 21.9231 20.0056C21.9231 11.606 20.2504 0 16.5371 0Z" fill="url(#paint1_radial_6301_42851)"/>
<path d="M40.7573 28.111L24.9028 14.2305C23.5888 16.7379 23.156 19.6162 23.6741 22.4006C24.1922 25.1851 25.6311 27.7132 27.7585 29.5769C30.025 31.5782 32.94 32.6853 35.9602 32.692C40.5292 32.692 41.9111 31.1459 41.9225 30.1839C41.922 29.7672 41.8148 29.3576 41.6107 28.9945C41.4066 28.6315 41.1127 28.3272 40.7573 28.111Z" fill="url(#paint2_radial_6301_42851)"/>
<path d="M61.6794 32.7817C60.9462 32.7817 60.3133 32.6192 59.7806 32.2941C59.248 31.969 58.8417 31.5142 58.5615 30.9297C58.2848 30.3417 58.1465 29.6621 58.1465 28.8909C58.1465 28.1196 58.2848 27.4417 58.5615 26.8572C58.8417 26.2693 59.248 25.8128 59.7806 25.4877C60.3133 25.1626 60.9462 25 61.6794 25C62.2431 25 62.7481 25.0986 63.1942 25.2957C63.6439 25.4894 64.0191 25.7678 64.32 26.1309C64.6244 26.4906 64.8509 26.9178 64.9996 27.4123L63.8998 27.708C63.7476 27.1754 63.4848 26.7639 63.1112 26.4733C62.7377 26.1794 62.2604 26.0324 61.6794 26.0324C61.1572 26.0324 60.7179 26.1517 60.3617 26.3903C60.0055 26.629 59.7374 26.9645 59.5576 27.3968C59.3812 27.8291 59.293 28.3375 59.293 28.922C59.293 29.4927 59.3829 29.9907 59.5628 30.4161C59.7426 30.838 60.0106 31.1666 60.3669 31.4018C60.7266 31.6335 61.1641 31.7494 61.6794 31.7494C62.2604 31.7494 62.7377 31.6041 63.1112 31.3136C63.4848 31.0196 63.7476 30.6063 63.8998 30.0737L64.9996 30.3694C64.8509 30.864 64.6244 31.2928 64.32 31.656C64.0191 32.0157 63.6439 32.2941 63.1942 32.4912C62.7481 32.6849 62.2431 32.7817 61.6794 32.7817Z" fill="#002957"/>
<path d="M68.5737 32.7817C68.0238 32.7817 67.5413 32.6572 67.1263 32.4082C66.7113 32.1557 66.3913 31.8064 66.1665 31.3603C65.9417 30.9107 65.8293 30.3971 65.8293 29.8195C65.8293 29.2385 65.9435 28.7249 66.1717 28.2787C66.4 27.8326 66.7216 27.4867 67.1367 27.2411C67.5517 26.9921 68.0307 26.8676 68.5737 26.8676C69.1236 26.8676 69.6061 26.9921 70.0211 27.2411C70.4396 27.4902 70.7612 27.8395 70.986 28.2891C71.2108 28.7352 71.3232 29.2454 71.3232 29.8195C71.3232 30.4005 71.2091 30.9159 70.9808 31.3655C70.756 31.8116 70.4361 32.1592 70.0211 32.4082C69.6061 32.6572 69.1236 32.7817 68.5737 32.7817ZM66.981 29.8195C66.981 30.4213 67.1176 30.8951 67.3909 31.241C67.6641 31.5868 68.0584 31.7597 68.5737 31.7597C69.0925 31.7597 69.4885 31.5851 69.7617 31.2358C70.0349 30.883 70.1715 30.4109 70.1715 29.8195C70.1715 29.2212 70.0349 28.7508 69.7617 28.4084C69.4885 28.0625 69.0925 27.8896 68.5737 27.8896C68.048 27.8896 67.6503 28.0625 67.3805 28.4084C67.1142 28.7543 66.981 29.2246 66.981 29.8195Z" fill="#002957"/>
<path d="M76.3956 29.8714C76.3956 29.3215 76.2936 28.8563 76.0896 28.4758C75.8855 28.0919 75.5154 27.9 74.9794 27.9C74.554 27.9 74.2098 28.0453 73.947 28.3358C73.6876 28.6263 73.5579 29.0845 73.5579 29.7105V32.6261H72.4581V27.0233H73.4282V27.6925C73.6392 27.4296 73.9003 27.2273 74.2116 27.0855C74.5228 26.9437 74.8791 26.8728 75.2803 26.8728C75.8682 26.8728 76.3265 27.0215 76.655 27.319C76.987 27.6129 77.2101 27.9571 77.3243 28.3513C77.4384 28.7456 77.4955 29.133 77.4955 29.5134V32.6261H76.3956V29.8714Z" fill="#002957"/>
<path d="M82.7791 29.8714C82.7791 29.3215 82.6771 28.8563 82.473 28.4758C82.269 28.0919 81.8989 27.9 81.3628 27.9C80.9374 27.9 80.5933 28.0453 80.3304 28.3358C80.071 28.6263 79.9414 29.0845 79.9414 29.7105V32.6261H78.8415V27.0233H79.8117V27.6925C80.0226 27.4296 80.2837 27.2273 80.595 27.0855C80.9063 26.9437 81.2625 26.8728 81.6637 26.8728C82.2517 26.8728 82.7099 27.0215 83.0385 27.319C83.3705 27.6129 83.5936 27.9571 83.7077 28.3513C83.8218 28.7456 83.8789 29.133 83.8789 29.5134V32.6261H82.7791V29.8714Z" fill="#002957"/>
<path d="M87.6442 32.7817C87.0908 32.7817 86.6032 32.6607 86.1813 32.4186C85.7593 32.173 85.4307 31.8306 85.1956 31.3914C84.9638 30.9487 84.848 30.442 84.848 29.8714C84.848 29.2661 84.9621 28.737 85.1904 28.2839C85.4186 27.8308 85.7403 27.4815 86.1553 27.236C86.5703 26.9904 87.0493 26.8676 87.5923 26.8676C88.1284 26.8676 88.5919 26.9869 88.9827 27.2256C89.3735 27.4642 89.6727 27.8066 89.8802 28.2528C90.0911 28.6955 90.1966 29.2194 90.1966 29.8247C90.1966 29.8904 90.1932 29.9924 90.1863 30.1308H86.0101C86.055 30.653 86.2124 31.0559 86.4821 31.3395C86.7519 31.6197 87.122 31.7597 87.5923 31.7597C87.9278 31.7597 88.2201 31.6836 88.4691 31.5315C88.7181 31.3793 88.9118 31.1579 89.0501 30.8674L90.1136 31.2046C89.8992 31.6992 89.5706 32.0866 89.1279 32.3667C88.6852 32.6434 88.1907 32.7817 87.6442 32.7817ZM89.0761 29.2851C89.0173 28.7906 88.8685 28.424 88.6299 28.1853C88.3947 27.9467 88.0627 27.8274 87.6338 27.8274C87.1739 27.8274 86.809 27.9519 86.5392 28.2009C86.2729 28.4464 86.1052 28.8079 86.036 29.2851H89.0761Z" fill="#002957"/>
<path d="M93.747 32.7817C93.1867 32.7817 92.7025 32.6555 92.2944 32.403C91.8897 32.1506 91.5802 31.8012 91.3658 31.3551C91.1513 30.9089 91.0424 30.3988 91.0389 29.8247C91.0424 29.2471 91.1531 28.7352 91.3709 28.2891C91.5923 27.8395 91.907 27.4902 92.3151 27.2411C92.7267 26.9921 93.2092 26.8676 93.7625 26.8676C94.1672 26.8676 94.5355 26.9368 94.8675 27.0751C95.203 27.2135 95.4832 27.4106 95.708 27.6665C95.9362 27.9225 96.097 28.2251 96.1904 28.5744L95.1114 28.8857C95.0042 28.5744 94.8278 28.3306 94.5822 28.1542C94.3401 27.9778 94.0617 27.8896 93.747 27.8896C93.2351 27.8896 92.8477 28.066 92.5849 28.4188C92.3255 28.7681 92.1941 29.2367 92.1906 29.8247C92.1941 30.4195 92.329 30.8916 92.5953 31.241C92.8616 31.5868 93.2455 31.7597 93.747 31.7597C94.0859 31.7597 94.3643 31.6819 94.5822 31.5263C94.8036 31.3672 94.973 31.1337 95.0906 30.8259L96.1904 31.0853C96.0071 31.6352 95.7045 32.0554 95.2826 32.346C94.8606 32.6365 94.3488 32.7817 93.747 32.7817Z" fill="#002957"/>
<path d="M100.453 32.6261C100.132 32.6884 99.836 32.7195 99.5662 32.7195C99.1789 32.7195 98.84 32.6572 98.5494 32.5327C98.2624 32.4082 98.0479 32.2128 97.9061 31.9465C97.8197 31.7839 97.7626 31.6179 97.7349 31.4485C97.7107 31.2755 97.6986 31.0663 97.6986 30.8207V30.4213V27.8948H96.6247V27.0233H97.6986V25.4669H98.7881V27.0233H100.453V27.8948H98.7881V30.3694V30.6651C98.7881 30.8415 98.795 30.985 98.8088 31.0957C98.8227 31.2029 98.8538 31.2963 98.9022 31.3758C98.9852 31.5142 99.1011 31.6145 99.2498 31.6767C99.402 31.7355 99.587 31.7649 99.8049 31.7649C99.9916 31.7649 100.208 31.7459 100.453 31.7079V32.6261Z" fill="#002957"/>
<path fill-rule="evenodd" clip-rule="evenodd" d="M70.3287 10.9448C69.4935 10.9448 68.8168 10.2858 68.8168 9.47233C68.8168 8.65925 69.4935 8 70.3287 8C71.164 8 71.8405 8.65925 71.8405 9.47233C71.8405 10.2858 71.164 10.9448 70.3287 10.9448ZM68.9624 21.0082V12.0251C68.9624 12.0251 69.4296 12.3346 70.3124 12.3346C71.1952 12.3346 71.6626 12.0251 71.6626 12.0251V21.0082H68.9624ZM102.878 12.0251V21.0082H105.579V12.0251C105.579 12.0251 105.112 12.3346 104.229 12.3346C103.346 12.3346 102.878 12.0251 102.878 12.0251ZM104.245 10.9448C103.41 10.9448 102.733 10.2858 102.733 9.47233C102.733 8.65925 103.41 8 104.245 8C105.08 8 105.757 8.65925 105.757 9.47233C105.757 10.2858 105.08 10.9448 104.245 10.9448ZM98.2019 21.0081L102.338 8.28361H99.4621L96.3269 18.7236L93.188 8.28361H90.3157L94.4517 21.0081H98.2019ZM80.2322 16.1879C80.2322 14.4594 79.4318 13.4587 78.0489 13.4587C76.6845 13.4587 75.8842 14.4594 75.8842 16.1879C75.8842 17.9159 76.6845 18.9168 78.0489 18.9168C79.4318 18.9168 80.2322 17.9159 80.2322 16.1879ZM73.2826 16.1879C73.2826 13.1496 75.2292 11.0938 78.0489 11.0938C80.8873 11.0938 82.8339 13.1494 82.8339 16.1879C82.8339 19.2257 80.8873 21.282 78.0489 21.282C75.2292 21.282 73.2826 19.2259 73.2826 16.1879ZM87.7614 17.8125V13.5755H90.0441V11.596H87.7614V8.27336H85.8774L85.2025 11.596H83.644V13.5755H85.2377V18.1711C85.2377 20.4085 86.2615 21.2819 88.3753 21.2819C89.2356 21.2819 90.0441 21.1205 90.0441 21.1205V18.9124H88.9451C88.0546 18.9124 87.7614 18.6154 87.7614 17.8125ZM121.205 13.5755V17.8125C121.205 18.6154 121.498 18.9124 122.388 18.9124H123.487V21.1205C123.487 21.1205 122.679 21.2819 121.819 21.2819C119.705 21.2819 118.681 20.4085 118.681 18.1711V13.5755H117.087V11.596H118.646L119.321 8.27336H121.205V11.596H123.487V13.5755H121.205ZM111.765 13.2772C112.948 13.2772 113.658 13.9501 113.749 15.1146H113.748H109.819C109.91 14.0047 110.692 13.2772 111.765 13.2772ZM111.747 11.0938C109.073 11.0938 107.199 13.1859 107.199 16.1879V16.1881C107.199 19.2444 109.073 21.2819 111.802 21.2819C113.621 21.2819 115.04 20.5542 115.968 19.0988L114.13 17.6614C113.457 18.6438 112.748 19.0988 111.802 19.0988C110.619 19.0988 109.891 18.3164 109.819 16.9516H116.244C116.244 16.9516 116.277 16.5958 116.277 16.1879C116.277 13.1446 114.44 11.0938 111.747 11.0938ZM60.8487 21.0085H58.1484V8.27405H60.8487V21.0085ZM65.3304 21.0089H68.4221H68.4222L64.17 14.3321L68.2109 8.27386H65.2841L61.5205 14.0785C61.4323 14.2084 61.3888 14.3587 61.3893 14.5088C61.3897 14.6594 61.4345 14.8091 61.5232 14.9388L65.3304 21.0089Z" fill="#002957"/>
</g>
<defs>
<radialGradient id="paint0_radial_6301_42851" cx="0" cy="0" r="1" gradientUnits="userSpaceOnUse" gradientTransform="translate(45.3874 7.35747) rotate(154.035) scale(22.869 17.7725)">
<stop stop-color="#3AE3FF"/>
<stop offset="1" stop-color="#0070F4"/>
</radialGradient>
<radialGradient id="paint1_radial_6301_42851" cx="0" cy="0" r="1" gradientUnits="userSpaceOnUse" gradientTransform="translate(-5.26188 20.0063) scale(29.7633 42.2448)">
<stop stop-color="#3AE3FF"/>
<stop offset="1" stop-color="#0070F4"/>
</radialGradient>
<radialGradient id="paint2_radial_6301_42851" cx="0" cy="0" r="1" gradientUnits="userSpaceOnUse" gradientTransform="translate(22.7339 23.3733) scale(19.2666 22.713)">
<stop stop-color="#5BE92A"/>
<stop offset="0.39166" stop-color="#2DCF34"/>
<stop offset="1" stop-color="#00B63E"/>
<stop offset="1" stop-color="#00B63E"/>
</radialGradient>
<clipPath id="clip0_6301_42851">
<rect width="123.488" height="40" fill="white"/>
</clipPath>
</defs>
</svg>
