<svg width="11" height="21" viewBox="0 0 11 21" fill="none" xmlns="http://www.w3.org/2000/svg">
<path d="M0.7875 11.925H2.0625C2.175 11.925 2.2875 12.0375 2.2875 12.15V20.175C2.2875 20.5875 2.625 20.925 3.0375 20.925H5.9625C6.375 20.925 6.7125 20.5875 6.7125 20.175V12.15C6.7125 12.0375 6.825 11.925 6.9375 11.925H9.0375C9.4125 11.925 9.75 11.6625 9.7875 11.2875L10.275 8.3625C10.35 7.9125 9.975 7.4625 9.525 7.4625H7.05C6.8625 7.4625 6.7125 7.3125 6.7125 7.125V5.25C6.7125 4.7625 6.975 4.5 7.4625 4.5H9.675C10.0875 4.5 10.425 4.1625 10.425 3.75V0.75C10.425 0.3375 10.0875 0 9.675 0H7.0125C2.1375 0 2.25 3.9375 2.25 4.5V7.2375C2.25 7.35 2.1375 7.4625 2.025 7.4625H0.75C0.3375 7.4625 0 7.8 0 8.2125V11.1375C0.0375 11.5875 0.375 11.925 0.7875 11.925Z" fill="#F2F4F6"/>
</svg>
