<svg width="124" height="40" viewBox="0 0 124 40" fill="none" xmlns="http://www.w3.org/2000/svg">
<g clip-path="url(#clip0_6301_42878)">
<path d="M58.498 25.1036H62.9186V26.1867H59.5811V28.2908H62.2967V29.379H59.5811V32.5662H58.498V25.1036Z" fill="#002957"/>
<path d="M63.9561 25H65.0392V26.052H63.9561V25ZM63.9561 26.9693H65.0392V32.5662H63.9561V26.9693Z" fill="#002957"/>
<path d="M70.5236 29.8144C70.5236 29.265 70.4217 28.8004 70.2178 28.4203C70.014 28.0368 69.6443 27.8451 69.1088 27.8451C68.6839 27.8451 68.3401 27.9902 68.0775 28.2804C67.8184 28.5706 67.6889 29.0284 67.6889 29.6537V32.5662H66.5902V26.9693H67.5593V27.6378C67.7701 27.3752 68.0309 27.1731 68.3418 27.0315C68.6528 26.8898 69.0086 26.819 69.4094 26.819C69.9967 26.819 70.4545 26.9675 70.7827 27.2647C71.1144 27.5583 71.3372 27.9021 71.4512 28.2959C71.5652 28.6898 71.6222 29.0767 71.6222 29.4568V32.5662H70.5236V29.8144Z" fill="#002957"/>
<path d="M74.5527 32.7216C74.1519 32.7216 73.8099 32.6474 73.5266 32.4988C73.2433 32.3468 73.0273 32.1447 72.8788 31.8925C72.7337 31.6368 72.6611 31.3535 72.6611 31.0426C72.6611 30.2169 73.1016 29.6641 73.9826 29.3842C74.2486 29.3048 74.5492 29.2374 74.8843 29.1821C75.2229 29.1234 75.6911 29.0526 76.2887 28.9696L76.4598 28.9489C76.4425 28.5551 76.3354 28.2683 76.1385 28.0887C75.9415 27.9055 75.6271 27.814 75.1953 27.814C74.8809 27.814 74.6045 27.8865 74.3661 28.0316C74.1277 28.1768 73.9636 28.3979 73.8738 28.695L72.8632 28.384C73.0014 27.89 73.2675 27.5048 73.6613 27.2284C74.0586 26.952 74.5734 26.8138 75.2056 26.8138C75.7204 26.8138 76.1609 26.9019 76.5271 27.0781C76.8933 27.2543 77.1611 27.5221 77.3304 27.8814C77.4099 28.0507 77.4617 28.232 77.4859 28.4255C77.5135 28.6155 77.5273 28.847 77.5273 29.1199V32.5662H76.5686V31.7525C76.3371 32.0808 76.0555 32.3243 75.7239 32.4833C75.3957 32.6422 75.0053 32.7216 74.5527 32.7216ZM73.7339 31.0322C73.7339 31.2637 73.8185 31.4554 73.9878 31.6074C74.1605 31.7595 74.4128 31.8355 74.7444 31.8355C75.0381 31.8355 75.2972 31.7836 75.5218 31.68C75.7463 31.5729 75.926 31.4347 76.0607 31.2654C76.1989 31.0961 76.2905 30.9165 76.3354 30.7264C76.4045 30.5261 76.4425 30.2341 76.4494 29.8506L76.3147 29.8714C75.8102 29.9439 75.4319 30.0027 75.1797 30.0476C74.931 30.0925 74.7064 30.1443 74.506 30.203C74.2642 30.286 74.0742 30.3931 73.936 30.5243C73.8012 30.6556 73.7339 30.8249 73.7339 31.0322Z" fill="#002957"/>
<path d="M82.8012 29.8144C82.8012 29.265 82.6993 28.8004 82.4954 28.4203C82.2916 28.0368 81.9219 27.8451 81.3864 27.8451C80.9615 27.8451 80.6177 27.9902 80.3552 28.2804C80.096 28.5706 79.9665 29.0284 79.9665 29.6537V32.5662H78.8678V26.9693H79.8369V27.6378C80.0477 27.3752 80.3085 27.1731 80.6195 27.0315C80.9304 26.8898 81.2862 26.819 81.687 26.819C82.2743 26.819 82.7321 26.9675 83.0603 27.2647C83.392 27.5583 83.6148 27.9021 83.7288 28.2959C83.8428 28.6898 83.8999 29.0767 83.8999 29.4568V32.5662H82.8012V29.8144Z" fill="#002957"/>
<path d="M87.5731 32.7216C87.0134 32.7216 86.5297 32.5955 86.122 32.3433C85.7178 32.0911 85.4086 31.7422 85.1944 31.2965C84.9802 30.8508 84.8713 30.3412 84.8679 29.7677C84.8713 29.1908 84.9819 28.6794 85.1996 28.2338C85.4207 27.7846 85.7351 27.4357 86.1427 27.1869C86.5539 26.9382 87.0358 26.8138 87.5886 26.8138C87.9928 26.8138 88.3608 26.8829 88.6924 27.0211C89.0276 27.1593 89.3074 27.3562 89.532 27.6119C89.76 27.8675 89.9206 28.1698 90.0139 28.5188L88.936 28.8297C88.8289 28.5188 88.6527 28.2752 88.4074 28.099C88.1656 27.9228 87.8874 27.8347 87.5731 27.8347C87.0617 27.8347 86.6748 28.0109 86.4122 28.3633C86.1531 28.7123 86.0218 29.1804 86.0184 29.7677C86.0218 30.362 86.1566 30.8335 86.4226 31.1825C86.6886 31.528 87.0721 31.7007 87.5731 31.7007C87.9116 31.7007 88.1897 31.623 88.4074 31.4675C88.6285 31.3086 88.7978 31.0754 88.9153 30.7679L90.0139 31.027C89.8308 31.5763 89.5285 31.9961 89.107 32.2863C88.6855 32.5765 88.1742 32.7216 87.5731 32.7216Z" fill="#002957"/>
<path d="M93.4002 32.7216C92.8474 32.7216 92.3602 32.6007 91.9387 32.3589C91.5172 32.1136 91.189 31.7715 90.9541 31.3328C90.7226 30.8906 90.6069 30.3844 90.6069 29.8144C90.6069 29.2098 90.7209 28.6812 90.9489 28.2286C91.1769 27.776 91.4982 27.427 91.9128 27.1818C92.3274 26.9365 92.8059 26.8138 93.3483 26.8138C93.8838 26.8138 94.3468 26.933 94.7372 27.1714C95.1276 27.4098 95.4264 27.7518 95.6337 28.1975C95.8445 28.6397 95.9498 29.1631 95.9498 29.7677C95.9498 29.8334 95.9464 29.9353 95.9395 30.0735H91.7677C91.8126 30.5952 91.9698 30.9977 92.2393 31.281C92.5088 31.5608 92.8785 31.7007 93.3483 31.7007C93.6834 31.7007 93.9754 31.6247 94.2241 31.4727C94.4729 31.3207 94.6664 31.0996 94.8046 30.8094L95.8669 31.1462C95.6527 31.6403 95.3245 32.0272 94.8823 32.3071C94.4401 32.5834 93.946 32.7216 93.4002 32.7216ZM94.8305 29.2288C94.7717 28.7347 94.6232 28.3685 94.3848 28.1301C94.1499 27.8917 93.8182 27.7725 93.3898 27.7725C92.9303 27.7725 92.5658 27.8969 92.2963 28.1457C92.0303 28.391 91.8627 28.752 91.7936 29.2288H94.8305Z" fill="#002957"/>
<path fill-rule="evenodd" clip-rule="evenodd" d="M70.2553 10.9427C69.4209 10.9427 68.7449 10.2843 68.7449 9.47174C68.7449 8.65952 69.4209 8.00098 70.2553 8.00098C71.0896 8.00098 71.7655 8.65952 71.7655 9.47174C71.7655 10.2843 71.0896 10.9427 70.2553 10.9427ZM68.8903 20.9954V12.0218C68.8903 12.0218 69.357 12.331 70.2388 12.331C71.1207 12.331 71.5876 12.0218 71.5876 12.0218V20.9954H68.8903ZM102.77 12.0218V20.9954H105.468V12.0218C105.468 12.0218 105.001 12.331 104.119 12.331C103.237 12.331 102.77 12.0218 102.77 12.0218ZM104.135 10.9427C103.301 10.9427 102.625 10.2843 102.625 9.47174C102.625 8.65952 103.301 8.00098 104.135 8.00098C104.97 8.00098 105.646 8.65952 105.646 9.47174C105.646 10.2843 104.97 10.9427 104.135 10.9427ZM98.0987 20.9953L102.231 8.28431H99.3576L96.2257 18.7132L93.0902 8.28431H90.2209L94.3526 20.9953H98.0987ZM80.1481 16.1802C80.1481 14.4535 79.3486 13.4539 77.9673 13.4539C76.6043 13.4539 75.8048 14.4535 75.8048 16.1802C75.8048 17.9064 76.6043 18.9062 77.9673 18.9062C79.3486 18.9062 80.1481 17.9064 80.1481 16.1802ZM73.206 16.1802C73.206 13.1451 75.1505 11.0915 77.9673 11.0915C80.8026 11.0915 82.7471 13.1449 82.7471 16.1802C82.7471 19.2148 80.8026 21.2689 77.9673 21.2689C75.1505 21.2689 73.206 19.215 73.206 16.1802ZM87.6693 17.8032V13.5708H89.9495V11.5933H87.6693V8.27421H85.7873L85.1131 11.5933H83.5563V13.5708H85.1483V18.1614C85.1483 20.3965 86.1709 21.2689 88.2825 21.2689C89.1419 21.2689 89.9495 21.1077 89.9495 21.1077V18.9019H88.8517C87.9621 18.9019 87.6693 18.6053 87.6693 17.8032ZM121.077 13.5708V17.8032C121.077 18.6053 121.37 18.9019 122.26 18.9019H123.357V21.1077C123.357 21.1077 122.55 21.2689 121.691 21.2689C119.579 21.2689 118.556 20.3965 118.556 18.1614V13.5708H116.964V11.5933H118.521L119.195 8.27421H121.077V11.5933H123.357V13.5708H121.077ZM111.648 13.2726C112.829 13.2726 113.538 13.9448 113.629 15.108H113.629H109.703C109.794 13.9993 110.576 13.2726 111.648 13.2726ZM111.63 11.0915C108.958 11.0915 107.087 13.1814 107.087 16.1802V16.1804C107.087 19.2334 108.958 21.2687 111.684 21.2687C113.501 21.2687 114.919 20.5418 115.846 19.088L114.01 17.6521C113.338 18.6335 112.629 19.088 111.684 19.088C110.503 19.088 109.776 18.3064 109.703 16.9431H116.121C116.121 16.9431 116.155 16.5876 116.155 16.1802C116.155 13.1401 114.319 11.0915 111.63 11.0915ZM60.7853 20.9956H58.0879V8.27472H60.7853V20.9956ZM65.2622 20.996H68.3506H68.3508L64.103 14.3264L68.1396 8.27455H65.216L61.4563 14.073C61.3683 14.2027 61.3248 14.3529 61.3253 14.5029C61.3257 14.6532 61.3705 14.8029 61.4591 14.9324L65.2622 20.996Z" fill="#002957"/>
<path fill-rule="evenodd" clip-rule="evenodd" d="M12.3213 0.991131C5.0594 4.24073 0 11.5293 0 19.9999C0 28.4705 5.0594 35.7593 12.3213 39.0089C14.1277 39.8019 15.2464 40 16.202 40C19.8199 40 21.4766 28.4055 21.4766 19.9999C21.4766 11.5944 19.8197 0 16.202 0C15.2464 0 14.1277 0.197893 12.3213 0.991131Z" fill="url(#paint0_radial_6301_42878)"/>
<path fill-rule="evenodd" clip-rule="evenodd" d="M39.5734 4.15506L23.7227 20.0058C28.5668 23.1601 35.118 22.6136 39.3694 18.3622C43.083 14.6488 43.9698 9.18019 42.032 4.62732C41.7805 4.03603 41.2152 3.71191 40.6401 3.71191C40.2592 3.71191 39.8743 3.85416 39.5734 4.15524V4.15506Z" fill="url(#paint1_radial_6301_42878)"/>
<path fill-rule="evenodd" clip-rule="evenodd" d="M23.7227 19.9937L39.5734 35.8445C40.3289 36.5996 41.6135 36.355 42.032 35.3722C43.9698 30.8193 43.083 25.3505 39.3694 21.6367C36.9293 19.197 33.7324 17.9775 30.5345 17.9775C28.1611 17.9777 25.7865 18.6501 23.7228 19.9939L23.7227 19.9937Z" fill="url(#paint2_radial_6301_42878)"/>
</g>
<defs>
<radialGradient id="paint0_radial_6301_42878" cx="0" cy="0" r="1" gradientUnits="userSpaceOnUse" gradientTransform="translate(-5.15709 20.0045) scale(28.8643 42.803)">
<stop stop-color="#3AE3FF"/>
<stop offset="0.509804" stop-color="#1DA9F9"/>
<stop offset="1" stop-color="#0070F4"/>
</radialGradient>
<radialGradient id="paint1_radial_6301_42878" cx="0" cy="0" r="1" gradientUnits="userSpaceOnUse" gradientTransform="translate(52.6587 3.7972) rotate(180) scale(28.9825 21.3825)">
<stop stop-color="#3AE3FF"/>
<stop offset="1" stop-color="#0070F4"/>
</radialGradient>
<radialGradient id="paint2_radial_6301_42878" cx="0" cy="0" r="1" gradientUnits="userSpaceOnUse" gradientTransform="translate(29.1272 17.9728) rotate(53.6718) scale(19.5987 19.4287)">
<stop stop-color="#5BE92A"/>
<stop offset="0.0392157" stop-color="#2DCF34"/>
<stop offset="0.921569" stop-color="#00B63E"/>
<stop offset="1" stop-color="#00B63E"/>
</radialGradient>
<clipPath id="clip0_6301_42878">
<rect width="123.357" height="40" fill="white"/>
</clipPath>
</defs>
</svg>
