<svg width="34" height="31" viewBox="0 0 34 31" fill="none" xmlns="http://www.w3.org/2000/svg">
<path d="M32.4102 4.5H8.5625L8.03516 1.92188C7.91797 1.27734 7.33203 0.75 6.6875 0.75H0.828125C0.417969 0.75 0.125 1.10156 0.125 1.45312V2.85938C0.125 3.26953 0.417969 3.5625 0.828125 3.5625H5.51562L9.55859 24.4219C8.91406 25.125 8.5625 26.0039 8.5625 27C8.5625 29.1094 10.2031 30.75 12.3125 30.75C14.3633 30.75 16.0625 29.1094 16.0625 27C16.0625 26.3555 15.8281 25.7109 15.5352 25.125H24.0312C23.7383 25.7109 23.5625 26.3555 23.5625 27C23.5625 29.1094 25.2031 30.75 27.3125 30.75C29.3633 30.75 31.0625 29.1094 31.0625 27C31.0625 25.9453 30.5938 25.0078 29.8906 24.3047L29.9492 24.0703C30.125 23.1914 29.4805 22.3125 28.543 22.3125H12.0195L11.4922 19.5H29.7734C30.4766 19.5 31.0039 19.0898 31.1797 18.4453L33.8164 6.25781C33.9922 5.37891 33.3477 4.5 32.4102 4.5ZM12.3125 28.4062C11.4922 28.4062 10.9062 27.8203 10.9062 27C10.9062 26.2383 11.4922 25.5938 12.3125 25.5938C13.0742 25.5938 13.7188 26.2383 13.7188 27C13.7188 27.8203 13.0742 28.4062 12.3125 28.4062ZM27.3125 28.4062C26.4922 28.4062 25.9062 27.8203 25.9062 27C25.9062 26.2383 26.4922 25.5938 27.3125 25.5938C28.0742 25.5938 28.7188 26.2383 28.7188 27C28.7188 27.8203 28.0742 28.4062 27.3125 28.4062ZM28.6602 16.6875H10.9062L9.08984 7.3125H30.7109L28.6602 16.6875Z" fill="#00B63E"/>
</svg>
