<svg width="30" height="29" viewBox="0 0 30 29" fill="none" xmlns="http://www.w3.org/2000/svg">
<path d="M20.1562 15.625H16.875V12.3438C16.875 12.1094 16.6406 11.875 16.4062 11.875H13.5938C13.3008 11.875 13.125 12.1094 13.125 12.3438V15.625H9.84375C9.55078 15.625 9.375 15.8594 9.375 16.0938V18.9062C9.375 19.1992 9.55078 19.375 9.84375 19.375H13.125V22.6562C13.125 22.9492 13.3008 23.125 13.5938 23.125H16.4062C16.6406 23.125 16.875 22.9492 16.875 22.6562V19.375H20.1562C20.3906 19.375 20.625 19.1992 20.625 18.9062V16.0938C20.625 15.8594 20.3906 15.625 20.1562 15.625ZM27.1875 6.25H20.625V3.4375C20.625 1.91406 19.3359 0.625 17.8125 0.625H12.1875C10.6055 0.625 9.375 1.91406 9.375 3.4375V6.25H2.8125C1.23047 6.25 0 7.53906 0 9.0625V25.9375C0 27.5195 1.23047 28.75 2.8125 28.75H27.1875C28.7109 28.75 30 27.5195 30 25.9375V9.0625C30 7.53906 28.7109 6.25 27.1875 6.25ZM12.1875 3.4375H17.8125V6.25H12.1875V3.4375ZM27.1875 25.5859C27.1875 25.8203 27.0117 25.9375 26.8359 25.9375H3.16406C2.92969 25.9375 2.8125 25.8203 2.8125 25.5859V9.41406C2.8125 9.23828 2.92969 9.0625 3.16406 9.0625H26.8359C27.0117 9.0625 27.1875 9.23828 27.1875 9.41406V25.5859Z" fill="#00B63E"/>
</svg>
