<svg width="39" height="31" viewBox="0 0 39 31" fill="none" xmlns="http://www.w3.org/2000/svg">
<path d="M38.2324 7.83984C37.998 7.3125 37.5879 6.84375 37.0605 6.55078L25.459 0.75C24.873 1.57031 23.7598 3.73828 19.5996 3.73828C15.3223 3.73828 14.209 1.51172 13.6816 0.75L2.08008 6.55078C1.55273 6.84375 1.14258 7.3125 0.966797 7.83984C0.732422 8.42578 0.791016 9.07031 1.08398 9.59766L4.18945 15.8086C4.7168 16.9805 6.12305 17.3906 7.17773 16.8633L8.58398 16.2188C8.93555 16.043 9.28711 16.2773 9.28711 16.6289V27.4688C9.28711 29.2852 10.752 30.75 12.5684 30.75H26.6309C28.4473 30.75 29.9121 29.2852 29.9121 27.4688V16.6289C29.9121 16.2773 30.2637 16.043 30.5566 16.2188L31.9629 16.8633C33.0762 17.4492 34.4238 16.9805 35.0098 15.8672L38.1152 9.59766C38.3496 9.07031 38.4082 8.42578 38.2324 7.83984ZM32.7246 14.1094L28.3887 12.0586C27.8027 11.7656 27.0996 12.2344 27.0996 12.9375V27.4688C27.0996 27.7617 26.8652 27.9375 26.6309 27.9375H12.5684C12.2754 27.9375 12.0996 27.7617 12.0996 27.4688V12.9375C12.0996 12.2344 11.3379 11.7656 10.752 12.0586L6.47461 14.1094L3.83789 8.83594L12.9199 4.32422C14.502 5.73047 16.9043 6.55078 19.5996 6.55078C22.2363 6.55078 24.6387 5.73047 26.2207 4.32422L35.3027 8.83594L32.7246 14.1094Z" fill="#00B63E"/>
</svg>
