<svg width="29" height="29" viewBox="0 0 29 29" fill="none" xmlns="http://www.w3.org/2000/svg">
<path d="M27.5801 4.71094L24.1895 1.32031C23.6973 0.773438 23.041 0.5 22.3301 0.5C21.6738 0.5 21.0176 0.773438 20.4707 1.32031L1.16602 20.625C0.126953 21.6641 0.126953 23.3047 1.16602 24.3438L4.55664 27.7344C5.04883 28.2812 5.70508 28.5 6.41602 28.5C7.07227 28.5 7.72852 28.2812 8.27539 27.7344L27.5801 8.42969C28.6191 7.39062 28.6191 5.75 27.5801 4.71094ZM6.41602 25.875L3.02539 22.4844L15.2207 10.2344L18.666 13.6797L6.41602 25.875ZM20.5254 11.8203L17.0801 8.375L22.3301 3.125L25.7754 6.57031L20.5254 11.8203ZM24.0254 16.25L22.5488 19.2031L19.6504 20.625L22.5488 22.1016L24.0254 25L25.4473 22.1016L28.4004 20.625L25.4473 19.2031L24.0254 16.25ZM12.6504 5.75L13.5254 4L15.2754 3.125L13.5254 2.25L12.6504 0.5L11.7754 2.25L10.0254 3.125L11.7754 4L12.6504 5.75ZM4.77539 9.25L6.19727 6.35156L9.15039 4.875L6.19727 3.45312L4.77539 0.5L3.29883 3.45312L0.400391 4.875L3.29883 6.35156L4.77539 9.25Z" fill="#00B63E"/>
</svg>
