<svg width="29" height="29" viewBox="0 0 29 29" fill="none" xmlns="http://www.w3.org/2000/svg">
<path d="M24.5176 11C24.9551 11 25.3926 10.7812 25.7754 10.3984L28.127 7.44531C28.4551 7.00781 28.4551 6.29688 28.127 5.85938L25.7754 2.90625C25.4473 2.52344 24.9551 2.25 24.5176 2.25H15.7129V1.375C15.7129 0.9375 15.2754 0.5 14.8379 0.5H13.9629C13.4707 0.5 13.0879 0.9375 13.0879 1.375V2.25H3.46289C2.69727 2.25 2.15039 3.01562 2.15039 3.89062V9.35938C2.15039 10.2891 2.69727 11 3.46289 11H13.0879V12.75H4.22852C3.79102 12.75 3.35352 13.0234 3.02539 13.4062L0.619141 16.3594C0.291016 16.7969 0.291016 17.5078 0.619141 17.9453L3.02539 20.8984C3.35352 21.2812 3.79102 21.5 4.22852 21.5H13.0879V27.625C13.0879 28.1172 13.4707 28.5 13.9629 28.5H14.8379C15.2754 28.5 15.7129 28.1172 15.7129 27.625V21.5H25.3379C26.0488 21.5 26.6504 20.7891 26.6504 19.8594V14.3906C26.6504 13.5156 26.0488 12.75 25.3379 12.75H15.7129V11H24.5176ZM24.0254 18.875H4.77539L3.35352 17.125L4.77539 15.375H24.0254V18.875ZM4.77539 4.875H23.9707L25.3926 6.625L23.9707 8.375H4.77539V4.875Z" fill="#00B63E"/>
</svg>
