<svg width="33" height="31" viewBox="0 0 33 31" fill="none" xmlns="http://www.w3.org/2000/svg">
<path d="M17.7363 10.0078C17.7363 8.19141 16.9746 4.26562 16.7988 3.44531C16.5059 1.98047 15.1582 0.75 13.166 0.75C12.5215 0.75 11.8184 0.925781 11.2324 1.21875C10.6465 0.925781 9.94336 0.75 9.29883 0.75C8.5957 0.75 7.89258 0.925781 7.30664 1.21875C6.7207 0.925781 6.01758 0.75 5.37305 0.75C3.43945 0.75 2.0332 1.92188 1.74023 3.44531C1.56445 4.26562 0.861328 8.19141 0.861328 10.0078C0.861328 13.1133 2.50195 15.5742 4.9043 16.8633L4.31836 27.4102C4.20117 29.2266 5.66602 30.75 7.54102 30.75H11.0566C12.873 30.75 14.3379 29.2266 14.2207 27.4102L13.6348 16.8633C16.0371 15.5742 17.7363 13.1133 17.7363 10.0078ZM10.7051 14.9297L11.4082 27.5859C11.4082 27.7617 11.2324 27.9375 11.0566 27.9375H7.54102C7.30664 27.9375 7.13086 27.8203 7.13086 27.5859L7.83398 14.9297C5.37305 14.4023 3.67383 12.5859 3.67383 10.0078C3.67383 8.36719 4.49414 3.97266 4.49414 3.97266C4.61133 3.44531 6.19336 3.44531 6.25195 3.97266V10.6523C6.31055 11.2969 7.89258 11.2969 7.95117 10.6523L8.41992 3.97266C8.47852 3.44531 10.0605 3.44531 10.1191 3.97266L10.5879 10.6523C10.6465 11.2969 12.2285 11.2969 12.2871 10.6523V3.97266C12.3457 3.44531 13.9277 3.44531 14.0449 3.97266C14.0449 3.97266 14.8652 8.36719 14.8652 10.0078C14.9238 12.5859 13.166 14.4023 10.7051 14.9297ZM23.6543 18.9727L22.8926 27.3516C22.7168 29.168 24.1816 30.75 26.1738 30.75H29.4551C31.2129 30.75 32.7363 29.3438 32.7363 27.5859V3.91406C32.7363 2.21484 31.2129 0.75 29.4551 0.75C25.2363 0.75 19.6113 5.61328 19.6113 11.4141C19.6113 14.9883 21.6621 17.332 23.6543 18.9727ZM22.4238 11.4141C22.4238 7.19531 26.8184 3.5625 29.4551 3.5625C29.6895 3.5625 29.9238 3.73828 29.9238 3.91406V27.5859C29.9238 27.8203 29.6895 27.9375 29.4551 27.9375H26.1738C25.8809 27.9375 25.6465 27.7617 25.7051 27.5859L26.584 17.6836C24.2988 16.1016 22.4238 14.2266 22.4238 11.4141Z" fill="#00B63E"/>
</svg>
