<svg width="29" height="27" viewBox="0 0 29 27" fill="none" xmlns="http://www.w3.org/2000/svg">
<path d="M25.5742 7.375H24.0977C24.4805 6.71875 24.6992 6.00781 24.6992 5.1875C24.6992 2.5625 22.5117 0.375 19.8867 0.375C17.5898 0.375 16.1133 1.57812 14.2539 4.14844C12.3398 1.57812 10.8633 0.375 8.62109 0.375C5.94141 0.375 3.80859 2.5625 3.80859 5.1875C3.80859 6.00781 3.97266 6.71875 4.35547 7.375H2.82422C1.34766 7.375 0.199219 8.57812 0.199219 10V17C0.199219 17.4922 0.582031 17.875 1.07422 17.875H1.94922V23.7812C1.94922 25.3672 3.20703 26.625 4.79297 26.625H23.5508C25.1367 26.625 26.4492 25.3672 26.4492 23.7812V17.875H27.3242C27.7617 17.875 28.1992 17.4922 28.1992 17V10C28.1992 8.57812 26.9961 7.375 25.5742 7.375ZM12.8867 24H4.79297C4.68359 24 4.57422 23.8906 4.57422 23.7812V17.875H10.6992V15.25H2.82422V10H12.8867V24ZM8.56641 7.375C7.36328 7.375 6.37891 6.44531 6.37891 5.1875C6.37891 3.98438 7.36328 3 8.56641 3C9.76953 3 10.6445 3.4375 13.2148 7.21094L13.3242 7.375H8.56641ZM15.2383 7.21094C17.8086 3.4375 18.6836 3 19.8867 3C21.0898 3 22.0742 3.98438 22.0742 5.1875C22.0742 6.44531 21.0898 7.375 19.8867 7.375H15.1289L15.2383 7.21094ZM25.5742 15.25H17.6992V17.875H23.8242V23.7812C23.8242 23.8906 23.7148 24 23.5508 24H15.5117V10H25.5742V15.25Z" fill="#00B63E"/>
</svg>
