<svg width="31" height="31" viewBox="0 0 31 31" fill="none" xmlns="http://www.w3.org/2000/svg">
<path d="M26.918 4.96875H24.5742V3.5625C24.5742 2.03906 23.2852 0.75 21.7617 0.75H3.01172C1.42969 0.75 0.199219 2.03906 0.199219 3.5625V9.1875C0.199219 10.7695 1.42969 12 3.01172 12H21.7617C23.2852 12 24.5742 10.7695 24.5742 9.1875V7.78125H26.918C27.1523 7.78125 27.3867 8.01562 27.3867 8.25V13.875C27.3867 14.168 27.1523 14.3438 26.918 14.3438H15.1992C13.3828 14.3438 11.918 15.8672 11.918 17.625V19.5H11.4492C10.3945 19.5 9.57422 20.3789 9.57422 21.375V28.875C9.57422 29.9297 10.3945 30.75 11.4492 30.75H15.1992C16.1953 30.75 17.0742 29.9297 17.0742 28.875V21.375C17.0742 20.3789 16.1953 19.5 15.1992 19.5H14.7305V17.625C14.7305 17.3906 14.9062 17.1562 15.1992 17.1562H26.918C28.6758 17.1562 30.1992 15.6914 30.1992 13.875V8.25C30.1992 6.49219 28.6758 4.96875 26.918 4.96875ZM21.7617 9.1875H3.01172V3.5625H21.7617V9.1875ZM14.2617 27.9375H12.3867V22.3125H14.2617V27.9375Z" fill="#00B63E"/>
</svg>
