<svg width="36" height="28" viewBox="0 0 36 28" fill="none" xmlns="http://www.w3.org/2000/svg">
<path d="M22.7754 5.25C24.1973 5.25 25.4004 4.10156 25.4004 2.625C25.4004 1.20312 24.1973 0 22.7754 0C21.2988 0 20.1504 1.20312 20.1504 2.625C20.1504 4.10156 21.2988 5.25 22.7754 5.25ZM7.90039 14C4.01758 14 0.900391 17.1719 0.900391 21C0.900391 24.8828 4.01758 28 7.90039 28C11.7285 28 14.9004 24.8828 14.9004 21C14.9004 17.1719 11.7285 14 7.90039 14ZM7.90039 25.375C5.43945 25.375 3.52539 23.4609 3.52539 21C3.52539 18.5938 5.43945 16.625 7.90039 16.625C10.3066 16.625 12.2754 18.5938 12.2754 21C12.2207 23.4609 10.3066 25.375 7.90039 25.375ZM28.9004 14C25.0176 14 21.9004 17.1719 21.9004 21C21.9004 24.8828 25.0176 28 28.9004 28C32.7285 28 35.9004 24.8828 35.9004 21C35.9004 17.1719 32.7285 14 28.9004 14ZM28.9004 25.375C26.4395 25.375 24.5254 23.4609 24.5254 21C24.5254 18.5938 26.4395 16.625 28.9004 16.625C31.3066 16.625 33.2754 18.5938 33.2754 21C33.2207 23.4609 31.3066 25.375 28.9004 25.375ZM22.8301 11.5391C23.0488 11.7578 23.3223 11.8125 23.6504 11.8125H27.1504C27.8613 11.8125 28.4629 11.2656 28.4629 10.5C28.4629 9.78906 27.8613 9.1875 27.1504 9.1875H24.0879L20.0957 6.01562C19.8223 5.79688 19.5488 5.74219 19.2754 5.74219C18.9473 5.74219 18.6191 5.85156 18.4004 6.01562L12.7129 10.8828C12.3301 11.2109 12.1113 11.7031 12.1113 12.25C12.1113 12.8516 12.3848 13.3984 12.877 13.6719L17.0332 16.4609V22.75C17.0332 23.5156 17.6348 24.0625 18.3457 24.0625C19.1113 24.0625 19.6582 23.5156 19.6582 22.75V15.75C19.6582 15.3125 19.4395 14.9297 19.1113 14.6562L16.377 12.8516L20.2598 9.51562L22.8301 11.5391Z" fill="#00B63E"/>
</svg>
