<svg width="29" height="29" viewBox="0 0 29 29" fill="none" xmlns="http://www.w3.org/2000/svg">
<path d="M24.916 0.554688C24.8066 0.554688 24.6973 0.5 24.5332 0.5C23.877 0.5 23.2754 0.664062 22.6738 0.992188C22.5098 0.9375 22.291 0.9375 22.0723 0.9375C21.6895 0.9375 21.3066 0.992188 20.9238 1.10156C20.4316 1.26562 19.9395 1.48438 19.502 1.8125C19.0098 1.8125 18.5176 1.92188 18.0801 2.14062C17.5879 2.35938 17.1504 2.63281 16.7676 3.01562C16.2754 3.07031 15.7832 3.28906 15.3457 3.50781C14.9629 3.72656 14.5801 4.05469 14.252 4.4375C13.8145 4.54688 13.377 4.76562 12.9395 5.03906C12.666 5.25781 12.4473 5.53125 12.2285 5.75C11.9551 5.42188 11.7363 5.14844 11.4082 4.82031L9.11133 2.52344C8.61914 2.03125 7.79883 2.30469 7.63477 2.96094L6.1582 10.3984L2.82227 13.7891C0.197266 16.3594 0.0878906 20.4609 2.43945 23.1406L5.77539 26.5312C7.25195 28.0078 9.33008 28.7734 11.5176 28.4453C13.1035 28.2812 14.5801 27.4609 15.7285 26.3125L18.9004 23.1406L26.3379 21.6641C26.9941 21.5 27.2676 20.6797 26.7754 20.1875L24.4785 17.8906C24.1504 17.5625 23.877 17.2891 23.5488 17.0703C23.7676 16.8516 23.9863 16.6875 24.1504 16.4688C24.4238 16.0859 24.6426 15.6484 24.752 15.1562C25.1348 14.8281 25.4629 14.4453 25.6816 14.0078C25.9551 13.625 26.1191 13.1328 26.2285 12.6406C26.5566 12.3125 26.8301 11.875 27.0488 11.4375C27.2676 10.9453 27.377 10.4531 27.4316 9.90625C27.7598 9.52344 27.9785 9.08594 28.1426 8.59375C28.252 8.21094 28.3066 7.77344 28.3066 7.39062C28.3066 7.17188 28.3066 7.00781 28.252 6.84375C28.5801 6.29688 28.7441 5.69531 28.7441 5.03906V4.98438V4.92969C28.9082 2.6875 27.2129 0.71875 24.916 0.554688ZM4.29883 21.2812C2.98633 19.6406 3.0957 17.1797 4.62695 15.6484L8.56445 11.7109L9.54883 6.67969C12.0645 9.19531 12.9941 12.2578 12.2285 15.1562C10.4238 15.8125 8.67383 16.9062 7.19727 18.4375L4.29883 21.2812ZM17.5879 20.7344L13.6504 24.6172C12.0098 26.3125 9.27539 26.3672 7.63477 24.6719L6.10352 23.1953L9.00195 20.2422C11.0801 18.1641 13.7598 17.0703 16.3301 17.0703C18.5723 17.0703 20.8145 17.8906 22.6191 19.6953L17.5879 20.7344ZM25.2441 6.29688C25.627 6.67969 25.791 7.22656 25.627 7.77344C25.4629 8.32031 25.0254 8.70312 24.5332 8.86719C24.8066 9.30469 24.916 9.85156 24.6426 10.3438C24.4238 10.8359 23.9863 11.1641 23.4941 11.2734C23.7129 11.7109 23.7129 12.2578 23.4395 12.75C23.166 13.1875 22.6738 13.4609 22.1816 13.5156C22.3457 13.9531 22.291 14.5 21.9629 14.9375C21.7441 15.2656 21.416 15.4297 21.0879 15.5391C19.6113 14.8281 17.9707 14.4453 16.3301 14.4453C15.8926 14.4453 15.4551 14.5 15.0176 14.5C15.291 12.4219 14.9082 10.2344 13.8691 8.21094C13.9238 7.82812 14.1426 7.44531 14.4707 7.17188C14.9629 6.84375 15.5645 6.84375 15.9473 7.00781C15.9473 6.51562 16.2207 6.02344 16.7129 5.75C17.4238 5.3125 18.1348 5.69531 18.1895 5.69531C18.2441 5.20312 18.5723 4.76562 19.1191 4.54688C19.7207 4.27344 20.2676 4.49219 20.5957 4.65625C20.7051 4.16406 21.1426 3.78125 21.6348 3.61719C21.7988 3.5625 22.5098 3.39844 23.166 4C24.4238 1.53906 27.8145 4.98438 25.2441 6.29688Z" fill="#00B63E"/>
</svg>
