<svg width="25" height="29" viewBox="0 0 25 29" fill="none" xmlns="http://www.w3.org/2000/svg">
<path d="M22.9707 6.07812C21.7676 4.82031 19.9629 4.60156 18.541 5.25781C18.0488 2.63281 15.6973 0.5 12.7988 0.5C9.8457 0.5 7.49414 2.63281 7.00195 5.25781C5.58008 4.60156 3.77539 4.82031 2.57227 6.07812C0.986328 7.60938 0.986328 10.0703 2.57227 11.6016L5.79883 14.8281V24.5625C5.79883 26.75 7.54883 28.5 9.73633 28.5H10.1738C11.1582 28.5 12.0879 28.1719 12.7988 27.5156C13.4551 28.1719 14.3848 28.5 15.4238 28.5H15.8613C17.9941 28.5 19.7988 26.75 19.7988 24.5625V14.8281L22.9707 11.6016C24.5566 10.0703 24.5566 7.60938 22.9707 6.07812ZM12.7988 3.125C14.6035 3.125 16.0801 4.60156 16.0801 6.40625C16.0801 8.26562 14.6035 9.6875 12.7988 9.6875C10.9395 9.6875 9.51758 8.26562 9.51758 6.40625C9.51758 4.60156 10.9395 3.125 12.7988 3.125ZM21.1113 9.74219L17.1738 13.7344V24.5625C17.1738 25.3281 16.5723 25.875 15.8613 25.875H15.4238C14.6582 25.875 14.1113 25.3281 14.1113 24.5625V19.3125H11.4863V24.5625C11.4863 25.3281 10.8848 25.875 10.1738 25.875H9.73633C8.9707 25.875 8.42383 25.3281 8.42383 24.5625V13.7344L4.43164 9.74219C3.88477 9.25 3.88477 8.42969 4.43164 7.9375C4.92383 7.39062 5.74414 7.39062 6.23633 7.9375L10.2285 11.875H15.3145L19.3066 7.9375C19.7988 7.39062 20.6191 7.39062 21.1113 7.9375C21.6582 8.42969 21.6582 9.25 21.1113 9.74219Z" fill="#00B63E"/>
</svg>
