<svg width="31" height="27" viewBox="0 0 31 27" fill="none" xmlns="http://www.w3.org/2000/svg">
<path d="M26.8496 10.293V6.25C26.8496 3.14453 24.3301 0.625 21.2246 0.625H9.97461C6.86914 0.625 4.34961 3.14453 4.34961 6.25V10.293C2.29883 10.9375 0.775391 12.6367 0.599609 14.7461C0.482422 16.4453 1.12695 18.0859 2.47461 19.1406V24.5312C2.47461 25.8789 3.4707 26.875 4.81836 26.875H9.97461C10.209 26.875 11.7324 26.875 11.791 25H19.3496C19.4082 26.8164 20.9902 26.875 21.2246 26.875H26.3809C27.6699 26.875 28.7246 25.8789 28.7246 24.5312V19.1406C30.0137 18.0859 30.7168 16.5039 30.541 14.7461C30.3652 12.6367 28.8418 10.9375 26.8496 10.293ZM9.03711 24.0625H5.28711V17.6172L4.58398 17.207C3.76367 16.7383 3.35352 15.8594 3.41211 14.9805C3.4707 13.8086 4.64258 12.8125 5.99023 12.8125H6.69336C7.98242 12.8125 9.03711 13.8672 9.03711 15.1562V24.0625ZM19.3496 16.5625V22.1875H11.8496V16.5625H19.3496ZM19.5254 13.75H11.6152C11.0293 11.7578 9.27148 10.293 7.16211 10.0586V6.25C7.16211 4.72656 8.39258 3.4375 9.97461 3.4375H21.2246C22.748 3.4375 24.0371 4.72656 24.0371 6.25V10.0586C21.8691 10.293 20.1113 11.7578 19.5254 13.75ZM26.5566 17.207L25.9121 17.6172V24.0625H22.1621V15.1562C22.1621 13.8672 23.1582 12.8125 24.5059 12.8125H25.209C26.498 12.8125 27.6699 13.8086 27.7285 14.9805C27.8457 15.918 27.377 16.7383 26.5566 17.207Z" fill="#00B63E"/>
</svg>
