<svg width="26" height="29" viewBox="0 0 26 29" fill="none" xmlns="http://www.w3.org/2000/svg">
<path d="M13.1992 9.25C9.04297 9.25 5.76172 12.5859 5.76172 16.6875C5.76172 20.8438 9.04297 24.125 13.1992 24.125C17.3008 24.125 20.6367 20.8438 20.6367 16.6875C20.6367 12.5859 17.3008 9.25 13.1992 9.25ZM13.1992 21.5C10.957 21.5 9.15234 20.0234 8.55078 18H10.5742C11.0117 18 11.4492 17.6172 11.4492 17.125V16.25C11.4492 15.8125 11.0117 15.375 10.5742 15.375H8.55078C9.15234 13.4062 10.957 11.875 13.1992 11.875C15.8242 11.875 18.0117 14.0625 18.0117 16.6875C18.0117 19.3672 15.8242 21.5 13.1992 21.5ZM7.94922 6.1875C7.94922 5.47656 7.34766 4.875 6.63672 4.875C5.87109 4.875 5.32422 5.47656 5.32422 6.1875C5.32422 6.95312 5.87109 7.5 6.63672 7.5C7.34766 7.5 7.94922 6.95312 7.94922 6.1875ZM11.0117 7.5C11.7227 7.5 12.3242 6.95312 12.3242 6.1875C12.3242 5.47656 11.7227 4.875 11.0117 4.875C10.2461 4.875 9.69922 5.47656 9.69922 6.1875C9.69922 6.95312 10.2461 7.5 11.0117 7.5ZM21.9492 0.5H4.44922C2.48047 0.5 0.949219 2.08594 0.949219 4V26.75C0.949219 27.7344 1.71484 28.5 2.69922 28.5H23.6992C24.6289 28.5 25.4492 27.7344 25.4492 26.75V4C25.4492 2.08594 23.8633 0.5 21.9492 0.5ZM22.8242 25.875H3.57422V4C3.57422 3.5625 3.95703 3.125 4.44922 3.125H21.9492C22.3867 3.125 22.8242 3.5625 22.8242 4V25.875Z" fill="#00B63E"/>
</svg>
