<svg width="35" height="27" viewBox="0 0 35 27" fill="none" xmlns="http://www.w3.org/2000/svg">
<path d="M34.0059 9.5C32.7168 9.55859 29.0254 9.73438 25.334 11.668C23.752 7.03906 21.291 3.05469 18.1855 0.359375C18.0098 0.242188 17.7754 0.125 17.5996 0.125C17.3652 0.125 17.1309 0.242188 16.9551 0.359375C13.8496 3.05469 11.3887 7.03906 9.80664 11.668C6.11523 9.73438 2.42383 9.55859 1.13477 9.5C0.900391 9.5 0.666016 9.73438 0.666016 9.96875C0.724609 11.6094 1.13477 17.3516 5.88086 21.6875C10.6855 26.375 15.4902 26.375 17.4238 26.375H17.7168C19.6504 26.375 24.4551 26.375 29.2598 21.6875C34.0059 17.3516 34.416 11.6094 34.4746 9.96875C34.4746 9.73438 34.2402 9.5 34.0059 9.5ZM7.87305 19.6367H7.81445L7.75586 19.5781C5.29492 17.3516 4.24023 14.5977 3.83008 12.6055C6.05664 12.957 9.2207 13.9531 11.7402 16.4141V16.4727H11.7988C13.2051 17.7031 14.2012 19.2266 14.9629 21.043L16.0176 23.5625C14.0254 23.3867 10.9785 22.6836 7.87305 19.6367ZM17.5996 19.9297C16.7793 18.1133 15.6074 16.1211 13.6738 14.3633C13.2051 13.9531 12.7363 13.543 12.209 13.1914C13.4395 9.44141 15.2559 6.10156 17.5996 3.69922C19.8848 6.10156 21.7012 9.44141 22.9316 13.1914C22.4043 13.543 21.9355 13.9531 21.4668 14.3633C19.5332 16.1211 18.3613 18.1133 17.5996 19.9297ZM27.3848 19.5781L27.3262 19.6367H27.2676C24.1621 22.6836 21.1152 23.3867 19.123 23.5625L20.1777 21.043C20.9395 19.2266 21.9355 17.7031 23.3418 16.4727H23.4004V16.4141C25.9199 13.9531 29.084 12.957 31.3105 12.6055C30.9004 14.5977 29.8457 17.3516 27.3848 19.5781Z" fill="#00B63E"/>
</svg>
