<svg width="26" height="29" viewBox="0 0 26 29" fill="none" xmlns="http://www.w3.org/2000/svg">
<path d="M7.75 8.8125C7.75 9.08594 7.91406 9.25 8.1875 9.25H19.5625C19.7812 9.25 20 9.08594 20 8.8125V7.0625C20 6.84375 19.7812 6.625 19.5625 6.625H8.1875C7.91406 6.625 7.75 6.84375 7.75 7.0625V8.8125ZM8.1875 13.625H19.5625C19.7812 13.625 20 13.4609 20 13.1875V11.4375C20 11.2188 19.7812 11 19.5625 11H8.1875C7.91406 11 7.75 11.2188 7.75 11.4375V13.1875C7.75 13.4609 7.91406 13.625 8.1875 13.625ZM24.5391 22.375C24.9219 22.3203 25.25 21.9375 25.25 21.5V1.375C25.25 0.9375 24.8125 0.5 24.375 0.5H5.125C2.66406 0.5 0.75 2.46875 0.75 4.875V24.125C0.75 26.5859 2.66406 28.5 5.125 28.5H24.375C24.8125 28.5 25.25 28.1172 25.25 27.625V26.75C25.25 26.3672 24.9219 25.9844 24.5391 25.9297C24.2656 25.2188 24.2656 23.0859 24.5391 22.375ZM22.2969 22.375C22.1328 23.3594 22.1328 24.9453 22.2969 25.875H5.125C4.14062 25.875 3.375 25.1094 3.375 24.125C3.375 23.1953 4.14062 22.375 5.125 22.375H22.2969ZM22.625 3.125V19.75H5.125C4.46875 19.75 3.86719 19.9141 3.375 20.1328V4.875C3.375 3.94531 4.14062 3.125 5.125 3.125H22.625Z" fill="#00B63E"/>
</svg>
