<svg width="16" height="17" viewBox="0 0 16 17" fill="none" xmlns="http://www.w3.org/2000/svg">
<path d="M14 0.5H2C0.875 0.5 0 1.40625 0 2.5V11.5C0 12.625 0.875 13.5 2 13.5H5V16.125C5 16.4375 5.34375 16.625 5.59375 16.4375L9.5 13.5H14C15.0938 13.5 16 12.625 16 11.5V2.5C16 1.40625 15.0938 0.5 14 0.5ZM4 8C3.4375 8 3 7.5625 3 7C3 6.46875 3.4375 6 4 6C4.53125 6 5 6.46875 5 7C5 7.5625 4.53125 8 4 8ZM8 8C7.4375 8 7 7.5625 7 7C7 6.46875 7.4375 6 8 6C8.53125 6 9 6.46875 9 7C9 7.5625 8.53125 8 8 8ZM12 8C11.4375 8 11 7.5625 11 7C11 6.46875 11.4375 6 12 6C12.5312 6 13 6.46875 13 7C13 7.5625 12.5312 8 12 8Z" fill="#00B63E"/>
</svg>
