<svg width="17" height="15" viewBox="0 0 17 15" fill="none" xmlns="http://www.w3.org/2000/svg">
<path d="M12.5625 5.53125C12.2188 4.90625 11.5625 4.5 10.8125 4.5H7.15625C6.40625 4.5 5.75 4.90625 5.40625 5.53125L2.125 11.2812C2.03125 11.4375 2 11.5938 2 11.7812V13.5C2 14.0625 2.4375 14.5 3 14.5H15C15.5312 14.5 16 14.0625 16 13.5V11.7812C15.9688 11.5938 15.9375 11.4375 15.8438 11.2812L12.5625 5.53125ZM9 11.5C7.75 11.5 6.75 10.5 6.75 9.25C6.75 8.03125 7.75 7 9 7C10.2188 7 11.25 8.03125 11.25 9.25C11.25 10.5 10.2188 11.5 9 11.5ZM16.8125 3.34375C14.625 1.53125 11.8438 0.5 9 0.5C6.125 0.5 3.34375 1.53125 1.15625 3.34375C1.0625 3.46875 0.96875 3.59375 0.96875 3.75H1V5.5C1 5.78125 1.21875 6 1.5 6H3.6875C3.875 6 4.03125 5.90625 4.125 5.75L5 3.5C6.21875 2.96875 7.59375 2.75 9 2.75C10.375 2.75 11.75 2.96875 13 3.5L13.8438 5.75C13.9375 5.90625 14.0938 6 14.2812 6H16.5C16.75 6 17 5.78125 17 5.5V3.75C17 3.59375 16.9062 3.46875 16.8125 3.34375Z" fill="#00B63E"/>
</svg>
