<svg width="15" height="18" viewBox="0 0 15 18" fill="none" xmlns="http://www.w3.org/2000/svg">
<path d="M13.25 7.71875C13.5625 7.90625 13.7812 8.1875 13.9062 8.5C14.0312 8.84375 14.0312 9.1875 13.9062 9.5C13.7812 9.84375 13.5625 10.0938 13.25 10.2812L2.25 16.7812C1.9375 16.9688 1.59375 17.0312 1.25 16.9688C0.875 16.9062 0.59375 16.75 0.34375 16.4688C0.09375 16.2188 0 15.875 0 15.5V2.5C0 2.09375 0.125 1.75 0.375 1.5C0.625 1.25 0.90625 1.09375 1.28125 1.03125C1.625 0.96875 1.9375 1.03125 2.25 1.21875L13.25 7.71875Z" fill="white"/>
</svg>
