<svg width="124" height="40" viewBox="0 0 124 40" fill="none" xmlns="http://www.w3.org/2000/svg">
<g clip-path="url(#clip0_6301_42822)">
<path fill-rule="evenodd" clip-rule="evenodd" d="M12.3212 0.991147C5.05928 4.24024 0 11.5295 0 19.9995C0 28.4702 5.05928 35.759 12.3212 39.0085C14.1274 39.8021 15.2464 40 16.2014 40C19.8196 40 21.4761 28.4055 21.4761 19.9996C21.4761 11.5941 19.8196 0 16.2014 0C15.2464 0 14.1272 0.197898 12.3212 0.991147Z" fill="url(#paint0_radial_6301_42822)"/>
<path fill-rule="evenodd" clip-rule="evenodd" d="M40.2728 6.27362H34.6576C33.8034 6.27362 33.0945 6.90343 32.9578 7.74643C32.3621 11.4247 29.5711 14.3767 25.9774 15.2118C24.7753 15.491 23.9004 16.5228 23.9004 17.7567V22.251C23.9004 23.5117 25.0163 24.4675 26.2669 24.3044C34.5618 23.2221 41.1177 16.5274 41.9872 8.16876C42.093 7.15531 41.2916 6.27344 40.2728 6.27344V6.27362Z" fill="url(#paint1_radial_6301_42822)"/>
<path fill-rule="evenodd" clip-rule="evenodd" d="M34.7765 33.7264H40.0519C41.1888 33.7264 42.0948 32.7412 41.9634 31.6118C40.9854 23.2056 34.2521 16.5307 25.8193 15.6422C25.7581 15.6361 25.6968 15.6328 25.6363 15.6328C24.6898 15.6324 23.9004 16.4087 23.9004 17.3785V22.4313C23.9004 23.5559 24.694 24.5161 25.7948 24.7479C29.4378 25.5153 32.2921 28.4504 32.9381 32.1368C33.0975 33.0452 33.8542 33.7266 34.7766 33.7266L34.7765 33.7264Z" fill="url(#paint2_radial_6301_42822)"/>
<path d="M61.2048 32.7736C60.6693 32.7736 60.1856 32.682 59.7537 32.4989C59.3253 32.3123 58.9712 32.048 58.6913 31.706C58.4149 31.3605 58.2353 30.9511 58.1523 30.4778L59.2821 30.3068C59.3961 30.7628 59.6345 31.1187 59.9973 31.3743C60.36 31.6265 60.7833 31.7526 61.267 31.7526C61.5675 31.7526 61.8439 31.706 62.0961 31.6127C62.3483 31.516 62.5505 31.3795 62.7025 31.2033C62.8579 31.0236 62.9357 30.8094 62.9357 30.5607C62.9357 30.4259 62.9115 30.3068 62.8631 30.2031C62.8182 30.0995 62.7543 30.0096 62.6714 29.9336C62.5919 29.8542 62.4934 29.7868 62.376 29.7315C62.262 29.6728 62.1359 29.6227 61.9977 29.5812L60.0854 29.0163C59.8988 28.9611 59.7088 28.8902 59.5153 28.8039C59.3218 28.714 59.1439 28.5983 58.9815 28.4566C58.8226 28.3115 58.693 28.1336 58.5928 27.9229C58.4927 27.7087 58.4426 27.4495 58.4426 27.1455C58.4426 26.686 58.56 26.2973 58.795 25.9795C59.0333 25.6582 59.3547 25.4163 59.7589 25.2539C60.1631 25.0881 60.6157 25.0052 61.1167 25.0052C61.6211 25.0121 62.0719 25.1019 62.4693 25.2747C62.87 25.4474 63.2017 25.6962 63.4643 26.0209C63.7303 26.3422 63.9134 26.7326 64.0136 27.1921L62.8528 27.3891C62.8009 27.1092 62.6904 26.8691 62.5211 26.6687C62.3518 26.4649 62.1445 26.3094 61.8992 26.2023C61.6539 26.0918 61.3879 26.0347 61.1011 26.0313C60.8247 26.0244 60.5708 26.0658 60.3393 26.1557C60.1113 26.2455 59.9282 26.3716 59.79 26.534C59.6552 26.6964 59.5879 26.8829 59.5879 27.0937C59.5879 27.301 59.6483 27.4685 59.7692 27.5964C59.8902 27.7242 60.0387 27.8261 60.2149 27.9021C60.3946 27.9747 60.5725 28.0351 60.7487 28.0835L62.1272 28.4722C62.3 28.5206 62.4952 28.5862 62.7128 28.6691C62.934 28.7486 63.1464 28.8609 63.3503 29.006C63.5576 29.1511 63.7286 29.3446 63.8633 29.5864C63.9981 29.8248 64.0654 30.1254 64.0654 30.4881C64.0654 30.8647 63.9894 31.1964 63.8374 31.4832C63.6854 31.7665 63.4764 32.0048 63.2103 32.1983C62.9478 32.3883 62.6437 32.5317 62.2982 32.6285C61.9528 32.7252 61.5883 32.7736 61.2048 32.7736Z" fill="#002957"/>
<path d="M67.6004 32.7736C67.0407 32.7736 66.5553 32.6475 66.1441 32.3953C65.733 32.143 65.4151 31.7958 65.1906 31.3536C64.9695 30.9079 64.8589 30.3949 64.8589 29.8144C64.8589 29.2305 64.9729 28.7175 65.2009 28.2753C65.429 27.8296 65.7485 27.4841 66.1597 27.2388C66.5708 26.99 67.0511 26.8657 67.6004 26.8657C68.1601 26.8657 68.6455 26.9918 69.0566 27.244C69.4678 27.4962 69.7856 27.8434 70.0102 28.2856C70.2348 28.7279 70.347 29.2375 70.347 29.8144C70.347 30.3983 70.233 30.9131 70.005 31.3588C69.7804 31.801 69.4626 32.1482 69.0514 32.4004C68.6403 32.6492 68.1566 32.7736 67.6004 32.7736ZM67.6004 31.7526C68.1359 31.7526 68.5349 31.573 68.7975 31.2137C69.0635 30.8509 69.1966 30.3845 69.1966 29.8144C69.1966 29.2305 69.0618 28.7641 68.7923 28.4152C68.5263 28.0628 68.129 27.8866 67.6004 27.8866C67.2376 27.8866 66.9388 27.9695 66.7038 28.1353C66.4689 28.2977 66.2944 28.524 66.1804 28.8142C66.0664 29.101 66.0094 29.4344 66.0094 29.8144C66.0094 30.4018 66.1441 30.8716 66.4136 31.224C66.6831 31.5764 67.0787 31.7526 67.6004 31.7526Z" fill="#002957"/>
<path d="M71.9989 32.6181V26.8242C71.9989 26.6825 72.0041 26.5323 72.0145 26.3733C72.0248 26.2109 72.0542 26.052 72.1026 25.8966C72.1544 25.7376 72.239 25.5925 72.3565 25.4612C72.4982 25.3058 72.6536 25.1952 72.8229 25.1296C72.9922 25.0639 73.1598 25.0259 73.3256 25.0155C73.4949 25.0052 73.6504 25 73.792 25H74.4968V25.8914H73.8439C73.5882 25.8914 73.3964 25.9553 73.2686 26.0831C73.1442 26.2075 73.082 26.3854 73.082 26.6169V32.6181H71.9989ZM71.0713 27.8918V27.0211H74.4968V27.8918H71.0713Z" fill="#002957"/>
<path d="M78.5248 32.6181C78.1724 32.6872 77.8269 32.7166 77.4883 32.7062C77.1497 32.6958 76.8474 32.6302 76.5814 32.5093C76.3153 32.3883 76.115 32.1983 75.9802 31.9392C75.8593 31.7077 75.7936 31.4728 75.7833 31.2344C75.7764 30.9926 75.7729 30.7196 75.7729 30.4156V25.4664H76.8612V30.3638C76.8612 30.5883 76.8629 30.7835 76.8664 30.9494C76.8733 31.1152 76.9096 31.2551 76.9752 31.3691C77.0996 31.5833 77.2965 31.706 77.566 31.7371C77.839 31.7647 78.1585 31.7526 78.5248 31.7008V32.6181ZM74.7002 27.8918V27.0211H78.5248V27.8918H74.7002Z" fill="#002957"/>
<path d="M80.8967 32.6181L79.1866 27.0159L80.2593 27.0211L81.4305 30.8613L82.6121 27.0211H83.5449L84.7265 30.8613L85.8977 27.0211H86.9653L85.2551 32.6181H84.3845L83.0785 28.5655L81.7674 32.6181H80.8967Z" fill="#002957"/>
<path d="M89.1602 32.7736C88.7456 32.7736 88.3984 32.6976 88.1185 32.5455C87.8387 32.3901 87.6262 32.1862 87.4811 31.934C87.3395 31.6784 87.2686 31.3985 87.2686 31.0945C87.2686 30.8112 87.3187 30.5624 87.4189 30.3482C87.5191 30.134 87.6677 29.9526 87.8646 29.8041C88.0615 29.652 88.3034 29.5294 88.5901 29.4361C88.8389 29.3636 89.1205 29.2996 89.4349 29.2444C89.7493 29.1891 90.0792 29.1373 90.4247 29.0889C90.7737 29.0405 91.1191 28.9922 91.4612 28.9438L91.0673 29.1614C91.0742 28.7227 90.9809 28.3979 90.7875 28.1872C90.5975 27.973 90.2692 27.8659 89.8028 27.8659C89.5092 27.8659 89.2397 27.935 88.9944 28.0731C88.7491 28.2079 88.578 28.4325 88.4813 28.7469L87.4707 28.4359C87.6089 27.9557 87.8715 27.5739 88.2585 27.2906C88.6489 27.0073 89.1671 26.8657 89.8132 26.8657C90.3141 26.8657 90.7495 26.952 91.1191 27.1248C91.4923 27.2941 91.7652 27.5635 91.938 27.9332C92.0278 28.1163 92.0831 28.3098 92.1038 28.5137C92.1245 28.7175 92.1349 28.9369 92.1349 29.1718V32.6181H91.1761V31.338L91.3627 31.5039C91.1312 31.9323 90.8358 32.2519 90.4765 32.4626C90.1207 32.6699 89.6819 32.7736 89.1602 32.7736ZM89.352 31.8874C89.6594 31.8874 89.9237 31.8338 90.1449 31.7267C90.366 31.6162 90.5439 31.4762 90.6786 31.307C90.8134 31.1377 90.9015 30.9615 90.9429 30.7784C91.0017 30.6125 91.0345 30.4259 91.0414 30.2187C91.0518 30.0114 91.057 29.8455 91.057 29.7211L91.4094 29.8507C91.0673 29.9025 90.7564 29.9492 90.4765 29.9906C90.1967 30.0321 89.9427 30.0735 89.7147 30.115C89.4902 30.153 89.2898 30.1997 89.1136 30.2549C88.965 30.3068 88.832 30.3689 88.7145 30.4415C88.6005 30.514 88.509 30.6021 88.4399 30.7058C88.3742 30.8094 88.3414 30.9355 88.3414 31.0841C88.3414 31.2292 88.3777 31.364 88.4502 31.4883C88.5228 31.6093 88.6333 31.706 88.7819 31.7785C88.9305 31.8511 89.1205 31.8874 89.352 31.8874Z" fill="#002957"/>
<path d="M93.4806 32.6181V27.0211H94.4445V28.3789L94.3098 28.2027C94.3789 28.0231 94.4687 27.8589 94.5793 27.7104C94.6898 27.5584 94.8177 27.434 94.9628 27.3373C95.1044 27.2336 95.2616 27.1541 95.4344 27.0989C95.6106 27.0401 95.7902 27.0056 95.9733 26.9952C96.1564 26.9814 96.3326 26.99 96.5019 27.0211V28.0369C96.3188 27.9885 96.115 27.9747 95.8904 27.9954C95.6693 28.0161 95.4655 28.087 95.2789 28.2079C95.1027 28.3219 94.9628 28.4601 94.8591 28.6225C94.7589 28.7849 94.6864 28.9662 94.6415 29.1666C94.5965 29.3636 94.5741 29.5726 94.5741 29.7937V32.6181H93.4806Z" fill="#002957"/>
<path d="M99.87 32.7736C99.3138 32.7736 98.8249 32.6526 98.4034 32.4108C97.9853 32.1655 97.6588 31.8252 97.4239 31.3899C97.1924 30.9511 97.0767 30.4432 97.0767 29.8663C97.0767 29.2547 97.1907 28.7244 97.4187 28.2753C97.6502 27.8261 97.9715 27.4789 98.3826 27.2336C98.7938 26.9883 99.2723 26.8657 99.8182 26.8657C100.388 26.8657 100.874 26.9987 101.274 27.2647C101.675 27.5273 101.974 27.9021 102.171 28.3893C102.371 28.8764 102.451 29.4551 102.409 30.1254H101.326V29.7315C101.319 29.082 101.195 28.6018 100.953 28.2908C100.715 27.9799 100.35 27.8244 99.8596 27.8244C99.3172 27.8244 98.9095 27.9954 98.6366 28.3375C98.3636 28.6795 98.2272 29.1735 98.2272 29.8196C98.2272 30.4346 98.3636 30.9114 98.6366 31.2499C98.9095 31.5851 99.3034 31.7526 99.8182 31.7526C100.157 31.7526 100.449 31.6766 100.694 31.5246C100.943 31.3691 101.136 31.148 101.274 30.8613L102.337 31.1981C102.119 31.6991 101.789 32.0878 101.347 32.3642C100.905 32.6371 100.412 32.7736 99.87 32.7736ZM97.8748 30.1254V29.2806H101.87V30.1254H97.8748Z" fill="#002957"/>
<path fill-rule="evenodd" clip-rule="evenodd" d="M70.2554 10.9417C69.4211 10.9417 68.745 10.2834 68.745 9.47078C68.745 8.65855 69.4211 8 70.2554 8C71.0897 8 71.7656 8.65855 71.7656 9.47078C71.7656 10.2834 71.0897 10.9417 70.2554 10.9417ZM68.8905 20.9945V12.0208C68.8905 12.0208 69.3572 12.33 70.2391 12.33C71.1209 12.33 71.5879 12.0208 71.5879 12.0208V20.9945H68.8905ZM102.771 12.0208V20.9945H105.468V12.0208C105.468 12.0208 105.002 12.33 104.12 12.33C103.238 12.33 102.771 12.0208 102.771 12.0208ZM104.136 10.9417C103.301 10.9417 102.625 10.2834 102.625 9.47078C102.625 8.65855 103.302 8 104.136 8C104.97 8 105.646 8.65855 105.646 9.47078C105.646 10.2834 104.97 10.9417 104.136 10.9417ZM98.0993 20.9945L102.231 8.28335H99.3581L96.2262 18.7124L93.0907 8.28335H90.2213L94.353 20.9945H98.0993ZM80.1484 16.1793C80.1484 14.4526 79.3489 13.453 77.9675 13.453C76.6045 13.453 75.805 14.4526 75.805 16.1793C75.805 17.9055 76.6045 18.9053 77.9675 18.9053C79.3489 18.9053 80.1484 17.9055 80.1484 16.1793ZM73.2062 16.1793C73.2062 13.1442 75.1507 11.0906 77.9675 11.0906C80.8029 11.0906 82.7474 13.144 82.7474 16.1793C82.7474 19.2139 80.8029 21.2681 77.9675 21.2681C75.1507 21.2681 73.2062 19.2141 73.2062 16.1793ZM87.6698 17.8022V13.5697H89.95V11.5922H87.6698V8.27307H85.7877L85.1135 11.5922H83.5567V13.5697H85.1487V18.1604C85.1487 20.3955 86.1714 21.268 88.283 21.268C89.1424 21.268 89.95 21.1067 89.95 21.1067V18.9009H88.8522C87.9626 18.9009 87.6698 18.6043 87.6698 17.8022ZM121.078 13.5697V17.8022C121.078 18.6043 121.371 18.9009 122.26 18.9009H123.358V21.1067C123.358 21.1067 122.551 21.268 121.691 21.268C119.58 21.268 118.557 20.3955 118.557 18.1604V13.5697H116.965V11.5922H118.522L119.196 8.27307H121.078V11.5922H123.358V13.5697H121.078ZM111.649 13.2717C112.83 13.2717 113.539 13.9439 113.63 15.1071H113.63H109.704C109.795 13.9984 110.576 13.2717 111.649 13.2717ZM111.63 11.0906C108.959 11.0906 107.087 13.1805 107.087 16.1793V16.1795C107.087 19.2325 108.959 21.2679 111.685 21.2679C113.502 21.2679 114.92 20.541 115.847 19.0872L114.011 17.6512C113.339 18.6326 112.63 19.0872 111.685 19.0872C110.504 19.0872 109.776 18.3055 109.704 16.9422H116.122C116.122 16.9422 116.156 16.5867 116.156 16.1793C116.156 13.1392 114.32 11.0906 111.63 11.0906ZM60.7853 20.9948H58.0879V8.27371H60.7853V20.9948ZM65.2623 20.9952H68.3507H68.3509L64.1031 14.3254L68.1397 8.27353H65.2161L61.4564 14.0721C61.3683 14.2018 61.3248 14.352 61.3254 14.502C61.3257 14.6523 61.3705 14.8019 61.4591 14.9315L65.2623 20.9952Z" fill="#002957"/>
</g>
<defs>
<radialGradient id="paint0_radial_6301_42822" cx="0" cy="0" r="1" gradientUnits="userSpaceOnUse" gradientTransform="translate(-5.16156 20.0066) scale(28.864 42.8026)">
<stop stop-color="#3AE3FF"/>
<stop offset="0.509804" stop-color="#1DA9F9"/>
<stop offset="1" stop-color="#0070F4"/>
</radialGradient>
<radialGradient id="paint1_radial_6301_42822" cx="0" cy="0" r="1" gradientUnits="userSpaceOnUse" gradientTransform="translate(45.393 6.32217) rotate(154.093) scale(22.4052 17.3841)">
<stop stop-color="#3AE3FF"/>
<stop offset="1" stop-color="#0070F4"/>
</radialGradient>
<radialGradient id="paint2_radial_6301_42822" cx="0" cy="0" r="1" gradientUnits="userSpaceOnUse" gradientTransform="translate(31.8493 16.8928) rotate(52.2338) scale(22.4806 22.4443)">
<stop stop-color="#5BE92A"/>
<stop offset="0.0392157" stop-color="#2DCF34"/>
<stop offset="0.921569" stop-color="#00B63E"/>
<stop offset="1" stop-color="#00B63E"/>
</radialGradient>
<clipPath id="clip0_6301_42822">
<rect width="123.358" height="40" fill="white"/>
</clipPath>
</defs>
</svg>
