<svg width="71" height="14" viewBox="0 0 71 14" fill="none" xmlns="http://www.w3.org/2000/svg">
<path d="M5.90031 1.42188L4.37688 4.53906L0.931564 5.03125C0.322189 5.125 0.0878143 5.875 0.533127 6.32031L2.99406 8.73438L2.40813 12.1328C2.31438 12.7422 2.97063 13.2109 3.50969 12.9297L6.58 11.3125L9.62688 12.9297C10.1659 13.2109 10.8222 12.7422 10.7284 12.1328L10.1425 8.73438L12.6034 6.32031C13.0488 5.875 12.8144 5.125 12.205 5.03125L8.78313 4.53906L7.23625 1.42188C6.97844 0.882812 6.18156 0.859375 5.90031 1.42188ZM20.3603 1.42188L18.8369 4.53906L15.3916 5.03125C14.7822 5.125 14.5478 5.875 14.9931 6.32031L17.4541 8.73438L16.8681 12.1328C16.7744 12.7422 17.4306 13.2109 17.9697 12.9297L21.04 11.3125L24.0869 12.9297C24.6259 13.2109 25.2822 12.7422 25.1884 12.1328L24.6025 8.73438L27.0634 6.32031C27.5088 5.875 27.2744 5.125 26.665 5.03125L23.2431 4.53906L21.6963 1.42188C21.4384 0.882812 20.6416 0.859375 20.3603 1.42188ZM34.8203 1.42188L33.2969 4.53906L29.8516 5.03125C29.2422 5.125 29.0078 5.875 29.4531 6.32031L31.9141 8.73438L31.3281 12.1328C31.2344 12.7422 31.8906 13.2109 32.4297 12.9297L35.5 11.3125L38.5469 12.9297C39.0859 13.2109 39.7422 12.7422 39.6484 12.1328L39.0625 8.73438L41.5234 6.32031C41.9688 5.875 41.7344 5.125 41.125 5.03125L37.7031 4.53906L36.1563 1.42188C35.8984 0.882812 35.1016 0.859375 34.8203 1.42188ZM49.2803 1.42188L47.7569 4.53906L44.3116 5.03125C43.7022 5.125 43.4678 5.875 43.9131 6.32031L46.3741 8.73438L45.7881 12.1328C45.6944 12.7422 46.3506 13.2109 46.8897 12.9297L49.96 11.3125L53.0069 12.9297C53.5459 13.2109 54.2022 12.7422 54.1084 12.1328L53.5225 8.73438L55.9834 6.32031C56.4288 5.875 56.1944 5.125 55.585 5.03125L52.1631 4.53906L50.6163 1.42188C50.3584 0.882812 49.5616 0.859375 49.2803 1.42188ZM63.7403 1.42188L62.2169 4.53906L58.7716 5.03125C58.1622 5.125 57.9278 5.875 58.3731 6.32031L60.8341 8.73438L60.2481 12.1328C60.1544 12.7422 60.8106 13.2109 61.3497 12.9297L64.42 11.3125L67.4669 12.9297C68.0059 13.2109 68.6622 12.7422 68.5684 12.1328L67.9825 8.73438L70.4434 6.32031C70.8888 5.875 70.6544 5.125 70.045 5.03125L66.6231 4.53906L65.0763 1.42188C64.8184 0.882812 64.0216 0.859375 63.7403 1.42188Z" fill="#FFAC36"/>
</svg>
