<svg width="20" height="17" viewBox="0 0 20 17" fill="none" xmlns="http://www.w3.org/2000/svg">
<path d="M11.034 14.1339H5.99619C5.64197 14.1339 5.36647 13.8584 5.36647 13.5042V7.83666H7.25565C7.60987 7.83666 7.9641 7.63986 8.12153 7.28564C8.2396 6.93142 8.16089 6.49848 7.88538 6.26233L4.73674 3.07433C4.57931 2.9169 4.34316 2.79883 4.10701 2.79883C3.8315 2.79883 3.59536 2.9169 3.43792 3.11369L0.289281 6.26233C0.0137753 6.49848 -0.0649407 6.93142 0.0531333 7.28564C0.210565 7.63986 0.564788 7.83666 0.958368 7.83666H2.84755V13.5042C2.84755 15.2753 4.22508 16.6529 5.99619 16.6529H11.034C11.7031 16.6529 12.2935 16.1018 12.2935 15.3934C12.2935 14.7243 11.7031 14.1339 11.034 14.1339Z" fill="url(#paint0_radial_6301_43092)"/>
<path d="M19.9471 9.40657C19.7896 9.05235 19.4354 8.8162 19.0812 8.8162H17.192V3.14864C17.192 1.41689 15.7751 0 14.0434 0H9.00555C8.29711 0 7.74609 0.59037 7.74609 1.25946C7.74609 1.9679 8.29711 2.51891 9.00555 2.51891H14.0434C14.3582 2.51891 14.6731 2.83378 14.6731 3.14864V8.8162H12.7839C12.3903 8.8162 12.0361 9.01299 11.8787 9.36721C11.7606 9.72143 11.8393 10.1544 12.1148 10.4299L15.2635 13.5785C15.4209 13.7753 15.6571 13.854 15.9326 13.854C16.1687 13.854 16.4049 13.7753 16.5623 13.5785L19.7109 10.4299C19.9864 10.1937 20.0652 9.76079 19.9471 9.40657Z" fill="url(#paint1_radial_6301_43092)"/>
<defs>
<radialGradient id="paint0_radial_6301_43092" cx="0" cy="0" r="1" gradientUnits="userSpaceOnUse" gradientTransform="translate(11.3202 2.79883) rotate(112.313) scale(14.9754 13.7869)">
<stop stop-color="#5BE92A"/>
<stop offset="0.0392157" stop-color="#2DCF34"/>
<stop offset="0.921569" stop-color="#00B63E"/>
<stop offset="1" stop-color="#00B63E"/>
</radialGradient>
<radialGradient id="paint1_radial_6301_43092" cx="0" cy="0" r="1" gradientUnits="userSpaceOnUse" gradientTransform="translate(22.3001 0.0374077) rotate(151.165) scale(15.5791 12.995)">
<stop stop-color="#3AE3FF"/>
<stop offset="1" stop-color="#0070F4"/>
</radialGradient>
</defs>
</svg>
