<svg width="20" height="18" viewBox="0 0 20 18" fill="none" xmlns="http://www.w3.org/2000/svg">
<path d="M1.875 6.63464C1.9125 6.63464 1.9125 6.63464 1.875 6.63464C1.5375 6.63464 1.2 6.56093 0.9 6.48721C0.4125 6.33977 -0.0375001 6.78208 0.1125 7.22439C0.525 8.80933 1.8 10.0625 3.4125 10.3943C3.0375 10.5049 2.6625 10.5417 2.2875 10.5417C1.9125 10.5417 1.65 10.9472 1.8375 11.2789C2.55 12.569 3.9375 13.4536 5.475 13.4904H5.85C6.2625 13.4904 6.6 13.8222 6.6 14.2276C6.6 14.6331 6.2625 14.9648 5.85 14.9648C5.3625 14.9648 4.7625 14.9279 4.1625 14.7805C3.7875 14.7068 3.4125 14.7068 3.075 14.8174C2.4375 15.0385 1.7625 15.2228 1.05 15.2965C0.7875 15.3334 0.6 15.5177 0.6 15.7757C0.6 15.96 0.7125 16.1443 0.9 16.218C2.3625 16.8446 4.0125 17.2132 5.7375 17.2132C13.65 17.2132 18 10.6154 18 4.8654C18 4.53367 18.15 4.20194 18.4125 3.98079C18.8625 3.61219 19.275 3.20674 19.65 2.72758C19.8 2.54328 19.6125 2.28527 19.3875 2.35898C18.9375 2.50642 18.4875 2.617 18 2.69072C17.925 2.69072 17.8875 2.617 17.9625 2.54328C18.525 2.13783 19.0125 1.58494 19.3125 0.958337C19.425 0.737182 19.2 0.516028 18.975 0.626605C18.5625 0.84776 18.1125 0.995196 17.6625 1.14263C17.2125 1.29007 16.6875 1.17949 16.3125 0.884619C15.6 0.331732 14.6625 0 13.6875 0C11.7 0 10.0125 1.36379 9.525 3.2436C9.45 3.57534 9.7125 3.87021 10.05 3.87021C10.65 3.83335 11.25 3.75963 11.7 3.68591C12.075 3.61219 12.45 3.79649 12.6 4.12822C12.7875 4.57053 12.525 5.01284 12.1125 5.12342C10.3875 5.60259 8.475 5.27085 8.475 5.27085C5.55 4.8654 2.9625 3.46476 1.0875 1.43751C0.825 1.14263 0.3375 1.25321 0.225 1.58494C0.075 2.02725 0 2.50642 0 3.02245C0 4.53367 0.75 5.8606 1.875 6.63464Z" fill="#F2F4F6"/>
</svg>
