<svg width="21" height="18" viewBox="0 0 21 18" fill="none" xmlns="http://www.w3.org/2000/svg">
<path d="M3.375 17.5125C5.625 17.8125 7.9875 17.9625 10.5 17.9625C13.0125 17.9625 15.375 17.8125 17.625 17.5125C19.575 17.25 21 15.6 21 13.65V4.3125C21 2.3625 19.5375 0.7125 17.625 0.45C15.375 0.15 12.975 0 10.5 0C8.025 0 5.625 0.15 3.375 0.4875C1.4625 0.75 0 2.3625 0 4.3125V13.65C0 15.6375 1.4625 17.25 3.375 17.5125ZM8.1 7.275C8.1 6.2625 9.225 5.6625 10.0875 6.1875L13.0125 8.0625C13.6875 8.475 13.6875 9.45 13.0125 9.9L10.0875 11.775C9.225 12.3375 8.1 11.7 8.1 10.6875V7.275Z" fill="#F2F4F6"/>
</svg>
